<svg width="19" height="20" viewBox="0 0 19 20" fill="none" xmlns="http://www.w3.org/2000/svg">
<path d="M9.5 0.630859C7.62108 0.630859 5.78435 1.18802 4.22209 2.2319C2.65982 3.27577 1.44218 4.75947 0.723149 6.49537C0.00411623 8.23126 -0.184015 10.1414 0.182544 11.9842C0.549104 13.827 1.45389 15.5198 2.78249 16.8484C4.11109 18.177 5.80382 19.0818 7.64664 19.4483C9.48946 19.8149 11.3996 19.6267 13.1355 18.9077C14.8714 18.1887 16.3551 16.971 17.399 15.4088C18.4428 13.8465 19 12.0098 19 10.1309C18.9972 7.61216 17.9954 5.19742 16.2144 3.41643C14.4334 1.63544 12.0187 0.633653 9.5 0.630859ZM9.5 17.5197C8.03862 17.5197 6.61005 17.0864 5.39496 16.2745C4.17986 15.4626 3.23281 14.3086 2.67356 12.9585C2.11431 11.6083 1.96799 10.1227 2.25309 8.68936C2.53819 7.25605 3.24191 5.93948 4.27527 4.90612C5.30862 3.87277 6.6252 3.16905 8.0585 2.88395C9.49181 2.59884 10.9775 2.74517 12.3276 3.30442C13.6777 3.86366 14.8317 4.81072 15.6436 6.02581C16.4555 7.24091 16.8889 8.66947 16.8889 10.1309C16.8868 12.0899 16.1077 13.968 14.7224 15.3533C13.3372 16.7385 11.459 17.5176 9.5 17.5197ZM15.4815 10.1309C15.4815 10.4108 15.3703 10.6793 15.1723 10.8772C14.9744 11.0752 14.7059 11.1864 14.4259 11.1864H9.5C9.22005 11.1864 8.95157 11.0752 8.75361 10.8772C8.55566 10.6793 8.44445 10.4108 8.44445 10.1309V5.20493C8.44445 4.92498 8.55566 4.6565 8.75361 4.45854C8.95157 4.26059 9.22005 4.14938 9.5 4.14938C9.77995 4.14938 10.0484 4.26059 10.2464 4.45854C10.4443 4.6565 10.5556 4.92498 10.5556 5.20493V9.0753H14.4259C14.7059 9.0753 14.9744 9.18651 15.1723 9.38447C15.3703 9.58242 15.4815 9.85091 15.4815 10.1309Z" fill="#378B4D"/>
</svg>
