<svg width="19" height="19" viewBox="0 0 19 19" fill="none" xmlns="http://www.w3.org/2000/svg">
<path fill-rule="evenodd" clip-rule="evenodd" d="M8.09741 2.07543C8.94435 1.22849 10.093 0.752686 11.2908 0.752686H13.5489C13.9646 0.752686 14.3015 1.08968 14.3015 1.50537V4.51613C14.3015 4.93182 13.9646 5.26881 13.5489 5.26881H11.2908V6.77419H13.5489C13.7806 6.77419 13.9995 6.88098 14.1421 7.06367C14.2848 7.24636 14.3353 7.48457 14.2791 7.70943L13.5264 10.7202C13.4426 11.0553 13.1416 11.2903 12.7962 11.2903H11.2908V16.5591C11.2908 16.9748 10.9538 17.3118 10.5381 17.3118H7.52735C7.11166 17.3118 6.77467 16.9748 6.77467 16.5591V11.2903H5.26929C4.85359 11.2903 4.5166 10.9533 4.5166 10.5376V7.52688C4.5166 7.11118 4.85359 6.77419 5.26929 6.77419H6.77467V5.26881C6.77467 4.07106 7.25047 2.92237 8.09741 2.07543ZM11.2908 2.25806C10.4923 2.25806 9.7265 2.57527 9.16187 3.13989C8.59725 3.70452 8.28004 4.47031 8.28004 5.26881V7.52688C8.28004 7.94258 7.94305 8.27957 7.52735 8.27957H6.02198V9.78494H7.52735C7.94305 9.78494 8.28004 10.1219 8.28004 10.5376V15.8064H9.78542V10.5376C9.78542 10.1219 10.1224 9.78494 10.5381 9.78494H12.2085L12.5848 8.27957H10.5381C10.1224 8.27957 9.78542 7.94258 9.78542 7.52688V5.26881C9.78542 4.86956 9.94402 4.48667 10.2263 4.20435C10.5086 3.92204 10.8915 3.76344 11.2908 3.76344H12.7962V2.25806H11.2908Z" fill="#22252F"/>
</svg>
