<svg width="19" height="19" viewBox="0 0 19 19" fill="none" xmlns="http://www.w3.org/2000/svg">
<path fill-rule="evenodd" clip-rule="evenodd" d="M5.91457 2.25806C4.25177 2.25806 2.90381 3.60602 2.90381 5.26881V12.7957C2.90381 14.4585 4.25177 15.8064 5.91457 15.8064H13.4414C15.1042 15.8064 16.4522 14.4585 16.4522 12.7957V5.26881C16.4522 3.60602 15.1042 2.25806 13.4414 2.25806H5.91457ZM1.39844 5.26881C1.39844 2.77463 3.42038 0.752686 5.91457 0.752686H13.4414C15.9356 0.752686 17.9576 2.77463 17.9576 5.26881V12.7957C17.9576 15.2899 15.9356 17.3118 13.4414 17.3118H5.91457C3.42038 17.3118 1.39844 15.2899 1.39844 12.7957V5.26881Z" fill="#22252F"/>
<path fill-rule="evenodd" clip-rule="evenodd" d="M10.041 6.76613C9.57114 6.69646 9.09132 6.77671 8.66974 6.99546C8.24816 7.21421 7.90629 7.56032 7.69275 7.98457C7.47922 8.40882 7.40489 8.88959 7.48035 9.35851C7.5558 9.82743 7.7772 10.2606 8.11304 10.5965C8.44888 10.9323 8.88207 11.1537 9.351 11.2292C9.81992 11.3046 10.3007 11.2303 10.7249 11.0168C11.1492 10.8032 11.4953 10.4613 11.714 10.0398C11.9328 9.61819 12.013 9.13837 11.9434 8.66855C11.8723 8.18932 11.649 7.74565 11.3064 7.40308C10.9639 7.06051 10.5202 6.8372 10.041 6.76613ZM7.9764 5.65926C8.67904 5.29467 9.47874 5.16093 10.2618 5.27704C11.0605 5.39548 11.7999 5.76766 12.3709 6.33862C12.9418 6.90957 13.314 7.64902 13.4325 8.44774C13.5486 9.23077 13.4148 10.0305 13.0503 10.7331C12.6857 11.4357 12.1088 12.0055 11.4017 12.3614C10.6947 12.7173 9.89337 12.8412 9.11184 12.7154C8.3303 12.5897 7.60832 12.2207 7.04858 11.6609C6.48884 11.1012 6.11985 10.3792 5.99409 9.59767C5.86833 8.81613 5.99221 8.01484 6.3481 7.30777C6.70399 6.60069 7.27377 6.02384 7.9764 5.65926Z" fill="#22252F"/>
</svg>
