<svg width="19" height="19" viewBox="0 0 19 19" fill="none" xmlns="http://www.w3.org/2000/svg">
<g clip-path="url(#clip0)">
<path d="M6.53693 16.4839C4.57994 16.4839 2.54768 15.957 0.741228 14.9033C0.440153 14.7527 0.289615 14.3764 0.364884 14.0753C0.440153 13.7742 0.741228 13.5484 1.0423 13.5484C2.32187 13.6237 3.60144 13.3226 4.73048 12.7957C1.94553 11.0645 1.19284 8.65595 1.11757 6.77423C1.0423 4.59143 1.79499 2.78498 1.87026 2.70971C1.94553 2.4839 2.17134 2.2581 2.47241 2.2581C2.77349 2.2581 2.99929 2.33336 3.14983 2.55917C4.4294 4.36562 6.38639 5.49466 8.56919 5.64519C8.56919 4.44089 9.09607 3.31186 9.99929 2.4839C11.5799 1.12906 13.9133 1.12906 15.4939 2.4839C16.0961 2.2581 16.6982 1.95702 17.2251 1.58068C17.4509 1.43014 17.8272 1.43014 18.0531 1.58068C18.2789 1.73121 18.4294 2.10756 18.3541 2.40863C18.1283 3.4624 17.6014 4.44089 16.8488 5.26885C16.8488 5.41939 16.8488 5.49466 16.8488 5.64519C16.8488 9.78498 15.0423 13.2473 11.8057 15.0538C10.2251 16.0323 8.41865 16.4839 6.53693 16.4839ZM4.05306 14.6775C6.53693 15.2796 9.0208 14.9785 11.1283 13.7742C13.838 12.1936 15.4186 9.18283 15.4186 5.64519C15.4186 5.49466 15.4186 5.34412 15.3434 5.19358C15.2681 4.96777 15.3434 4.6667 15.5692 4.51616C15.7197 4.36562 15.8703 4.13982 16.0208 3.98928C15.8703 4.06455 15.6445 4.13982 15.4939 4.13982C15.1928 4.21509 14.8918 4.13982 14.7412 3.91401C13.7627 2.86025 12.1068 2.70971 11.0531 3.6882C10.3756 4.13982 10.0746 4.8925 10.0746 5.64519V6.39788C10.0746 6.77423 9.77349 7.15057 9.32187 7.15057C6.838 7.22584 4.50467 6.24734 2.84876 4.51616C2.39714 6.47315 2.2466 10.1613 6.6122 12.043C6.838 12.1936 7.06381 12.4194 7.06381 12.7205C7.06381 13.0215 6.98854 13.2473 6.76273 13.3979C5.85951 14 4.95628 14.4516 4.05306 14.6775Z" fill="#22252F"/>
</g>
<defs>
<clipPath id="clip0">
<rect width="18.0645" height="18.0645" fill="white" transform="translate(0.290039)"/>
</clipPath>
</defs>
</svg>
