<svg width="19" height="19" viewBox="0 0 19 19" fill="none" xmlns="http://www.w3.org/2000/svg">
<g clip-path="url(#clip0)">
<path fill-rule="evenodd" clip-rule="evenodd" d="M9.96715 2.25806C9.96721 2.25806 9.96726 2.25806 9.96726 3.01074L9.96725 3.76343L9.91045 3.76352C9.87279 3.7636 9.81715 3.76377 9.74575 3.7641C9.60292 3.76477 9.3971 3.76611 9.14594 3.7688C8.64332 3.77418 7.96058 3.78492 7.23854 3.80638C6.5153 3.82787 5.75868 3.85994 5.10649 3.90751C4.43802 3.95626 3.94133 4.01754 3.69387 4.08272C3.46904 4.1473 3.26501 4.26964 3.10209 4.43759C2.94318 4.60142 2.82884 4.80304 2.76976 5.02325C2.5443 6.28296 2.43404 7.56061 2.44037 8.84036L2.44041 8.8488C2.43234 10.1338 2.54177 11.4168 2.7674 12.6818C2.8326 12.8908 2.94809 13.0808 3.10393 13.235C3.2672 13.3966 3.46926 13.5135 3.6907 13.5745C3.93707 13.64 4.43515 13.7016 5.10649 13.7505C5.75868 13.7981 6.5153 13.8302 7.23854 13.8517C7.96058 13.8731 8.64332 13.8839 9.14594 13.8892C9.3971 13.8919 9.60292 13.8933 9.74575 13.8939C9.81715 13.8943 9.87279 13.8944 9.91045 13.8945H10.0241C10.0617 13.8944 10.1174 13.8943 10.1888 13.8939C10.3316 13.8933 10.5374 13.8919 10.7886 13.8892C11.2912 13.8839 11.9739 13.8731 12.696 13.8517C13.4192 13.8302 14.1758 13.7981 14.828 13.7505C15.4965 13.7018 15.9932 13.6405 16.2407 13.5753C16.4655 13.5107 16.6695 13.3884 16.8324 13.2205C16.9913 13.0566 17.1057 12.855 17.1648 12.6348C17.3885 11.3847 17.4987 10.1168 17.4941 8.84678L17.4941 8.83935C17.5022 7.54989 17.392 6.26242 17.1648 4.99315C17.1057 4.77294 16.9913 4.57132 16.8324 4.40748C16.6714 4.24145 16.4701 4.12 16.2484 4.05485C15.9925 3.99466 15.494 3.93917 14.8328 3.89514C14.1793 3.85161 13.4216 3.82231 12.6979 3.80267C11.9753 3.78307 11.2922 3.77325 10.7893 3.76834C10.538 3.76588 10.332 3.76466 10.1891 3.76404L10.0242 3.76351L9.96725 3.76343L9.96726 3.01074C9.96726 2.25806 9.96721 2.25806 9.96715 2.25806L10.0273 2.25814C10.066 2.25821 10.1229 2.25837 10.1955 2.25868C10.3408 2.2593 10.5496 2.26055 10.804 2.26303C11.3125 2.268 12.0049 2.27794 12.7387 2.29785C13.4715 2.31773 14.2512 2.3477 14.9328 2.39309C15.5949 2.43718 16.2232 2.49904 16.6189 2.59567C16.6278 2.59783 16.6365 2.60014 16.6453 2.60261C17.1271 2.73892 17.5644 2.99995 17.913 3.35935C18.2616 3.71875 18.5092 4.16378 18.6308 4.64949L17.9006 4.83225L18.6413 4.69864C18.8881 6.06681 19.008 7.45486 18.9995 8.84508C19.0042 10.2145 18.8843 11.5815 18.6413 12.9292C18.6384 12.9458 18.6348 12.9622 18.6308 12.9784C18.5092 13.4642 18.2616 13.9092 17.913 14.2686C17.5644 14.628 17.1271 14.889 16.6453 15.0253L16.6348 15.0282C16.2332 15.1356 15.5994 15.2037 14.9375 15.2519C14.2546 15.3017 13.4739 15.3346 12.7407 15.3564C12.0063 15.3782 11.3135 15.3891 10.8047 15.3945C10.5501 15.3973 10.3413 15.3986 10.1958 15.3993C10.1231 15.3996 10.0662 15.3998 10.0274 15.3999L9.96759 15.4L9.90712 15.3999C9.86829 15.3998 9.81141 15.3996 9.73869 15.3993C9.59325 15.3986 9.38439 15.3973 9.12984 15.3945C8.62103 15.3891 7.92825 15.3782 7.19383 15.3564C6.46061 15.3346 5.67987 15.3017 4.99698 15.2519C4.33514 15.2037 3.70135 15.1356 3.29967 15.0282L3.29549 15.0271C2.8235 14.8979 2.3928 14.6492 2.045 14.305C1.69719 13.9608 1.44405 13.5327 1.31002 13.0621C1.30322 13.0382 1.2976 13.014 1.29319 12.9895C1.04643 11.6215 0.926521 10.2336 0.934989 8.84358C0.92843 7.46392 1.04833 6.08656 1.29319 4.72878C1.29616 4.71227 1.29969 4.69587 1.30376 4.6796C1.42533 4.19389 1.67293 3.74886 2.02155 3.38946C2.37016 3.03006 2.80745 2.76903 3.28923 2.63272L3.29967 2.62985C3.70135 2.52242 4.33514 2.45439 4.99698 2.40612C5.67987 2.35631 6.46061 2.32346 7.19383 2.30167C7.92825 2.27984 8.62103 2.26895 9.12984 2.26351C9.38439 2.26079 9.59325 2.25942 9.73869 2.25874C9.81141 2.2584 9.86829 2.25823 9.90712 2.25814L9.96715 2.25806Z" fill="#22252F"/>
<path fill-rule="evenodd" clip-rule="evenodd" d="M7.89571 5.7322C8.12739 5.59743 8.41327 5.59603 8.64626 5.72853L12.9742 8.18982C13.2095 8.32362 13.3548 8.57344 13.3548 8.84411C13.3548 9.11477 13.2095 9.36459 12.9742 9.49839L8.64626 11.9597C8.41327 12.0922 8.12739 12.0908 7.89571 11.956C7.66402 11.8212 7.52148 11.5734 7.52148 11.3054V6.38282C7.52148 6.11478 7.66402 5.86697 7.89571 5.7322ZM9.02686 7.67676V10.0115L11.0795 8.84411L9.02686 7.67676Z" fill="#22252F"/>
</g>
<defs>
<clipPath id="clip0">
<rect width="18.0645" height="18.0645" fill="white" transform="translate(0.935547)"/>
</clipPath>
</defs>
</svg>
