<svg width="20" height="21" viewBox="0 0 20 21" fill="none" xmlns="http://www.w3.org/2000/svg">
<path d="M9.09954 1.63086H17.8247C18.474 1.63086 19.0002 2.15697 19.0002 2.80631V12.1905C19.0002 12.8412 18.474 13.3673 17.8247 13.3673H10.6917M4.66772 6.47802C5.3105 6.47802 5.92694 6.22268 6.38145 5.76817C6.83596 5.31366 7.09131 4.69722 7.09131 4.05444C7.09131 3.41167 6.83596 2.79522 6.38145 2.34071C5.92694 1.8862 5.3105 1.63086 4.66772 1.63086C4.02495 1.63086 3.4085 1.8862 2.95399 2.34071C2.49948 2.79522 2.24414 3.41167 2.24414 4.05444C2.24414 4.69722 2.49948 5.31366 2.95399 5.76817C3.4085 6.22268 4.02495 6.47802 4.66772 6.47802Z" stroke="#378B4D" stroke-width="2" stroke-linecap="round" stroke-linejoin="round"/>
<path d="M12.7683 8.58986C12.7683 7.80484 12.1315 7.16797 11.3464 7.16797H4.66756C3.69487 7.16797 2.76201 7.55437 2.0742 8.24217C1.3864 8.92997 1 9.86283 1 10.8355V14.0905H2.57142L3.09615 19.6285H6.23898L7.44627 10.0131H11.3464C12.1315 10.0131 12.7683 9.37626 12.7683 8.58986Z" stroke="#378B4D" stroke-width="2" stroke-linecap="round" stroke-linejoin="round"/>
</svg>
