<svg xmlns="http://www.w3.org/2000/svg" width="224" height="235" viewBox="0 0 224 235" fill="none">
  <g opacity="0.2">
    <path d="M-23.5484 2.34364L-24.7742 0.936661L-26 2.34364L-24.7742 3.75063L-23.5484 2.34364Z" fill="#2EBEA7"/>
    <path d="M-8.13921 2.34364L-9.365 0.936661L-10.5908 2.34364L-9.365 3.75063L-8.13921 2.34364Z" fill="#2EBEA7"/>
    <path d="M7.26984 2.34364L6.04404 0.936661L4.81825 2.34364L6.04404 3.75063L7.26984 2.34364Z" fill="#2EBEA7"/>
    <path d="M22.6791 2.34364L21.4533 0.936661L20.2275 2.34364L21.4533 3.75063L22.6791 2.34364Z" fill="#2EBEA7"/>
    <path d="M38.0883 2.34364L36.8625 0.936661L35.6367 2.34364L36.8625 3.75063L38.0883 2.34364Z" fill="#2EBEA7"/>
    <path d="M53.4973 2.34364L52.2715 0.936661L51.0457 2.34364L52.2715 3.75063L53.4973 2.34364Z" fill="#2EBEA7"/>
    <path d="M68.9065 2.34364L67.6807 0.936661L66.4549 2.34364L67.6807 3.75063L68.9065 2.34364Z" fill="#2EBEA7"/>
    <path d="M84.3156 2.34364L83.0898 0.936661L81.864 2.34364L83.0898 3.75063L84.3156 2.34364Z" fill="#2EBEA7"/>
    <path d="M99.7247 2.34364L98.499 0.936661L97.2732 2.34364L98.499 3.75063L99.7247 2.34364Z" fill="#2EBEA7"/>
    <path d="M115.134 2.34364L113.908 0.936661L112.682 2.34364L113.908 3.75063L115.134 2.34364Z" fill="#2EBEA7"/>
    <path d="M130.543 2.34364L129.317 0.936661L128.091 2.34364L129.317 3.75063L130.543 2.34364Z" fill="#2EBEA7"/>
    <path d="M145.952 2.34364L144.726 0.936661L143.501 2.34364L144.726 3.75063L145.952 2.34364Z" fill="#2EBEA7"/>
    <path d="M161.361 2.34364L160.136 0.936661L158.91 2.34364L160.136 3.75063L161.361 2.34364Z" fill="#2EBEA7"/>
    <path d="M176.77 2.34364L175.545 0.936661L174.319 2.34364L175.545 3.75063L176.77 2.34364Z" fill="#2EBEA7"/>
    <path d="M192.18 2.34364L190.954 0.936661L189.728 2.34364L190.954 3.75063L192.18 2.34364Z" fill="#2EBEA7"/>
    <path d="M207.589 2.34364L206.363 0.936661L205.137 2.34364L206.363 3.75063L207.589 2.34364Z" fill="#2EBEA7"/>
    <path d="M222.998 2.34364L221.772 0.936661L220.546 2.34364L221.772 3.75063L222.998 2.34364Z" fill="#2EBEA7"/>
    <path d="M-23.5484 20.0306L-24.7742 18.6236L-26 20.0306L-24.7742 21.4376L-23.5484 20.0306Z" fill="#2EBEA7"/>
    <path d="M-8.13921 20.0306L-9.365 18.6236L-10.5908 20.0306L-9.365 21.4376L-8.13921 20.0306Z" fill="#2EBEA7"/>
    <path d="M7.26984 20.0306L6.04404 18.6236L4.81825 20.0306L6.04404 21.4376L7.26984 20.0306Z" fill="#2EBEA7"/>
    <path d="M22.6791 20.0306L21.4533 18.6236L20.2275 20.0306L21.4533 21.4376L22.6791 20.0306Z" fill="#2EBEA7"/>
    <path d="M38.0883 20.0306L36.8625 18.6236L35.6367 20.0306L36.8625 21.4376L38.0883 20.0306Z" fill="#2EBEA7"/>
    <path d="M53.4973 20.0306L52.2715 18.6236L51.0457 20.0306L52.2715 21.4376L53.4973 20.0306Z" fill="#2EBEA7"/>
    <path d="M68.9065 20.0306L67.6807 18.6236L66.4549 20.0306L67.6807 21.4376L68.9065 20.0306Z" fill="#2EBEA7"/>
    <path d="M84.3156 20.0306L83.0898 18.6236L81.864 20.0306L83.0898 21.4376L84.3156 20.0306Z" fill="#2EBEA7"/>
    <path d="M99.7247 20.0306L98.499 18.6236L97.2732 20.0306L98.499 21.4376L99.7247 20.0306Z" fill="#2EBEA7"/>
    <path d="M115.134 20.0306L113.908 18.6236L112.682 20.0306L113.908 21.4376L115.134 20.0306Z" fill="#2EBEA7"/>
    <path d="M130.543 20.0306L129.317 18.6236L128.091 20.0306L129.317 21.4376L130.543 20.0306Z" fill="#2EBEA7"/>
    <path d="M145.952 20.0306L144.726 18.6236L143.501 20.0306L144.726 21.4376L145.952 20.0306Z" fill="#2EBEA7"/>
    <path d="M161.361 20.0306L160.136 18.6236L158.91 20.0306L160.136 21.4376L161.361 20.0306Z" fill="#2EBEA7"/>
    <path d="M176.77 20.0306L175.545 18.6236L174.319 20.0306L175.545 21.4376L176.77 20.0306Z" fill="#2EBEA7"/>
    <path d="M192.18 20.0306L190.954 18.6236L189.728 20.0306L190.954 21.4376L192.18 20.0306Z" fill="#2EBEA7"/>
    <path d="M207.589 20.0306L206.363 18.6236L205.137 20.0306L206.363 21.4376L207.589 20.0306Z" fill="#2EBEA7"/>
    <path d="M222.998 20.0306L221.772 18.6236L220.546 20.0306L221.772 21.4376L222.998 20.0306Z" fill="#2EBEA7"/>
    <path d="M-23.5484 37.7171L-24.7742 36.3102L-26 37.7171L-24.7742 39.1241L-23.5484 37.7171Z" fill="#2EBEA7"/>
    <path d="M-8.13921 37.7171L-9.365 36.3102L-10.5908 37.7171L-9.365 39.1241L-8.13921 37.7171Z" fill="#2EBEA7"/>
    <path d="M7.26984 37.7171L6.04404 36.3102L4.81825 37.7171L6.04404 39.1241L7.26984 37.7171Z" fill="#2EBEA7"/>
    <path d="M22.6791 37.7171L21.4533 36.3102L20.2275 37.7171L21.4533 39.1241L22.6791 37.7171Z" fill="#2EBEA7"/>
    <path d="M38.0883 37.7171L36.8625 36.3102L35.6367 37.7171L36.8625 39.1241L38.0883 37.7171Z" fill="#2EBEA7"/>
    <path d="M53.4973 37.7171L52.2715 36.3102L51.0457 37.7171L52.2715 39.1241L53.4973 37.7171Z" fill="#2EBEA7"/>
    <path d="M68.9065 37.7171L67.6807 36.3102L66.4549 37.7171L67.6807 39.1241L68.9065 37.7171Z" fill="#2EBEA7"/>
    <path d="M84.3156 37.7171L83.0898 36.3102L81.864 37.7171L83.0898 39.1241L84.3156 37.7171Z" fill="#2EBEA7"/>
    <path d="M99.7247 37.7171L98.499 36.3102L97.2732 37.7171L98.499 39.1241L99.7247 37.7171Z" fill="#2EBEA7"/>
    <path d="M115.134 37.7171L113.908 36.3102L112.682 37.7171L113.908 39.1241L115.134 37.7171Z" fill="#2EBEA7"/>
    <path d="M130.543 37.7171L129.317 36.3102L128.091 37.7171L129.317 39.1241L130.543 37.7171Z" fill="#2EBEA7"/>
    <path d="M145.952 37.7171L144.726 36.3102L143.501 37.7171L144.726 39.1241L145.952 37.7171Z" fill="#2EBEA7"/>
    <path d="M161.361 37.7171L160.136 36.3102L158.91 37.7171L160.136 39.1241L161.361 37.7171Z" fill="#2EBEA7"/>
    <path d="M176.77 37.7171L175.545 36.3102L174.319 37.7171L175.545 39.1241L176.77 37.7171Z" fill="#2EBEA7"/>
    <path d="M192.18 37.7171L190.954 36.3102L189.728 37.7171L190.954 39.1241L192.18 37.7171Z" fill="#2EBEA7"/>
    <path d="M207.589 37.7171L206.363 36.3102L205.137 37.7171L206.363 39.1241L207.589 37.7171Z" fill="#2EBEA7"/>
    <path d="M222.998 37.7171L221.772 36.3102L220.546 37.7171L221.772 39.1241L222.998 37.7171Z" fill="#2EBEA7"/>
    <path d="M-23.5484 55.4043L-24.7742 53.9973L-26 55.4043L-24.7742 56.8113L-23.5484 55.4043Z" fill="#2EBEA7"/>
    <path d="M-8.13921 55.4043L-9.365 53.9973L-10.5908 55.4043L-9.365 56.8113L-8.13921 55.4043Z" fill="#2EBEA7"/>
    <path d="M7.26984 55.4043L6.04404 53.9973L4.81825 55.4043L6.04404 56.8113L7.26984 55.4043Z" fill="#2EBEA7"/>
    <path d="M22.6791 55.4043L21.4533 53.9973L20.2275 55.4043L21.4533 56.8113L22.6791 55.4043Z" fill="#2EBEA7"/>
    <path d="M38.0883 55.4043L36.8625 53.9973L35.6367 55.4043L36.8625 56.8113L38.0883 55.4043Z" fill="#2EBEA7"/>
    <path d="M53.4973 55.4043L52.2715 53.9973L51.0457 55.4043L52.2715 56.8113L53.4973 55.4043Z" fill="#2EBEA7"/>
    <path d="M68.9065 55.4043L67.6807 53.9973L66.4549 55.4043L67.6807 56.8113L68.9065 55.4043Z" fill="#2EBEA7"/>
    <path d="M84.3156 55.4043L83.0898 53.9973L81.864 55.4043L83.0898 56.8113L84.3156 55.4043Z" fill="#2EBEA7"/>
    <path d="M99.7247 55.4043L98.499 53.9973L97.2732 55.4043L98.499 56.8113L99.7247 55.4043Z" fill="#2EBEA7"/>
    <path d="M115.134 55.4043L113.908 53.9973L112.682 55.4043L113.908 56.8113L115.134 55.4043Z" fill="#2EBEA7"/>
    <path d="M130.543 55.4043L129.317 53.9973L128.091 55.4043L129.317 56.8113L130.543 55.4043Z" fill="#2EBEA7"/>
    <path d="M145.952 55.4043L144.726 53.9973L143.501 55.4043L144.726 56.8113L145.952 55.4043Z" fill="#2EBEA7"/>
    <path d="M161.361 55.4043L160.136 53.9973L158.91 55.4043L160.136 56.8113L161.361 55.4043Z" fill="#2EBEA7"/>
    <path d="M176.77 55.4043L175.545 53.9973L174.319 55.4043L175.545 56.8113L176.77 55.4043Z" fill="#2EBEA7"/>
    <path d="M192.18 55.4043L190.954 53.9973L189.728 55.4043L190.954 56.8113L192.18 55.4043Z" fill="#2EBEA7"/>
    <path d="M207.589 55.4043L206.363 53.9973L205.137 55.4043L206.363 56.8113L207.589 55.4043Z" fill="#2EBEA7"/>
    <path d="M222.998 55.4043L221.772 53.9973L220.546 55.4043L221.772 56.8113L222.998 55.4043Z" fill="#2EBEA7"/>
    <path d="M-23.5484 73.0913L-24.7742 71.6843L-26 73.0913L-24.7742 74.4982L-23.5484 73.0913Z" fill="#2EBEA7"/>
    <path d="M-8.13921 73.0913L-9.365 71.6843L-10.5908 73.0913L-9.365 74.4982L-8.13921 73.0913Z" fill="#2EBEA7"/>
    <path d="M7.26984 73.0913L6.04404 71.6843L4.81825 73.0913L6.04404 74.4982L7.26984 73.0913Z" fill="#2EBEA7"/>
    <path d="M22.6791 73.0913L21.4533 71.6843L20.2275 73.0913L21.4533 74.4982L22.6791 73.0913Z" fill="#2EBEA7"/>
    <path d="M38.0883 73.0913L36.8625 71.6843L35.6367 73.0913L36.8625 74.4982L38.0883 73.0913Z" fill="#2EBEA7"/>
    <path d="M53.4973 73.0913L52.2715 71.6843L51.0457 73.0913L52.2715 74.4982L53.4973 73.0913Z" fill="#2EBEA7"/>
    <path d="M68.9065 73.0913L67.6807 71.6843L66.4549 73.0913L67.6807 74.4982L68.9065 73.0913Z" fill="#2EBEA7"/>
    <path d="M84.3156 73.0913L83.0898 71.6843L81.864 73.0913L83.0898 74.4982L84.3156 73.0913Z" fill="#2EBEA7"/>
    <path d="M99.7247 73.0913L98.499 71.6843L97.2732 73.0913L98.499 74.4982L99.7247 73.0913Z" fill="#2EBEA7"/>
    <path d="M115.134 73.0913L113.908 71.6843L112.682 73.0913L113.908 74.4982L115.134 73.0913Z" fill="#2EBEA7"/>
    <path d="M130.543 73.0913L129.317 71.6843L128.091 73.0913L129.317 74.4982L130.543 73.0913Z" fill="#2EBEA7"/>
    <path d="M145.952 73.0913L144.726 71.6843L143.501 73.0913L144.726 74.4982L145.952 73.0913Z" fill="#2EBEA7"/>
    <path d="M161.361 73.0913L160.136 71.6843L158.91 73.0913L160.136 74.4982L161.361 73.0913Z" fill="#2EBEA7"/>
    <path d="M176.77 73.0913L175.545 71.6843L174.319 73.0913L175.545 74.4982L176.77 73.0913Z" fill="#2EBEA7"/>
    <path d="M192.18 73.0913L190.954 71.6843L189.728 73.0913L190.954 74.4982L192.18 73.0913Z" fill="#2EBEA7"/>
    <path d="M207.589 73.0913L206.363 71.6843L205.137 73.0913L206.363 74.4982L207.589 73.0913Z" fill="#2EBEA7"/>
    <path d="M222.998 73.0913L221.772 71.6843L220.546 73.0913L221.772 74.4982L222.998 73.0913Z" fill="#2EBEA7"/>
    <path d="M-23.5484 90.778L-24.7742 89.371L-26 90.778L-24.7742 92.185L-23.5484 90.778Z" fill="#2EBEA7"/>
    <path d="M-8.13921 90.778L-9.365 89.371L-10.5908 90.778L-9.365 92.185L-8.13921 90.778Z" fill="#2EBEA7"/>
    <path d="M7.26984 90.778L6.04404 89.371L4.81825 90.778L6.04404 92.185L7.26984 90.778Z" fill="#2EBEA7"/>
    <path d="M22.6791 90.778L21.4533 89.371L20.2275 90.778L21.4533 92.185L22.6791 90.778Z" fill="#2EBEA7"/>
    <path d="M38.0883 90.778L36.8625 89.371L35.6367 90.778L36.8625 92.185L38.0883 90.778Z" fill="#2EBEA7"/>
    <path d="M53.4973 90.778L52.2715 89.371L51.0457 90.778L52.2715 92.185L53.4973 90.778Z" fill="#2EBEA7"/>
    <path d="M68.9065 90.778L67.6807 89.371L66.4549 90.778L67.6807 92.185L68.9065 90.778Z" fill="#2EBEA7"/>
    <path d="M84.3156 90.778L83.0898 89.371L81.864 90.778L83.0898 92.185L84.3156 90.778Z" fill="#2EBEA7"/>
    <path d="M99.7247 90.778L98.499 89.371L97.2732 90.778L98.499 92.185L99.7247 90.778Z" fill="#2EBEA7"/>
    <path d="M115.134 90.778L113.908 89.371L112.682 90.778L113.908 92.185L115.134 90.778Z" fill="#2EBEA7"/>
    <path d="M130.543 90.778L129.317 89.371L128.091 90.778L129.317 92.185L130.543 90.778Z" fill="#2EBEA7"/>
    <path d="M145.952 90.778L144.726 89.371L143.501 90.778L144.726 92.185L145.952 90.778Z" fill="#2EBEA7"/>
    <path d="M161.361 90.778L160.136 89.371L158.91 90.778L160.136 92.185L161.361 90.778Z" fill="#2EBEA7"/>
    <path d="M176.77 90.778L175.545 89.371L174.319 90.778L175.545 92.185L176.77 90.778Z" fill="#2EBEA7"/>
    <path d="M192.18 90.778L190.954 89.371L189.728 90.778L190.954 92.185L192.18 90.778Z" fill="#2EBEA7"/>
    <path d="M207.589 90.778L206.363 89.371L205.137 90.778L206.363 92.185L207.589 90.778Z" fill="#2EBEA7"/>
    <path d="M222.998 90.778L221.772 89.371L220.546 90.778L221.772 92.185L222.998 90.778Z" fill="#2EBEA7"/>
    <path d="M-23.5484 108.465L-24.7742 107.058L-26 108.465L-24.7742 109.872L-23.5484 108.465Z" fill="#2EBEA7"/>
    <path d="M-8.13921 108.465L-9.365 107.058L-10.5908 108.465L-9.365 109.872L-8.13921 108.465Z" fill="#2EBEA7"/>
    <path d="M7.26984 108.465L6.04404 107.058L4.81825 108.465L6.04404 109.872L7.26984 108.465Z" fill="#2EBEA7"/>
    <path d="M22.6791 108.465L21.4533 107.058L20.2275 108.465L21.4533 109.872L22.6791 108.465Z" fill="#2EBEA7"/>
    <path d="M38.0883 108.465L36.8625 107.058L35.6367 108.465L36.8625 109.872L38.0883 108.465Z" fill="#2EBEA7"/>
    <path d="M53.4973 108.465L52.2715 107.058L51.0457 108.465L52.2715 109.872L53.4973 108.465Z" fill="#2EBEA7"/>
    <path d="M68.9065 108.465L67.6807 107.058L66.4549 108.465L67.6807 109.872L68.9065 108.465Z" fill="#2EBEA7"/>
    <path d="M84.3156 108.465L83.0898 107.058L81.864 108.465L83.0898 109.872L84.3156 108.465Z" fill="#2EBEA7"/>
    <path d="M99.7247 108.465L98.499 107.058L97.2732 108.465L98.499 109.872L99.7247 108.465Z" fill="#2EBEA7"/>
    <path d="M115.134 108.465L113.908 107.058L112.682 108.465L113.908 109.872L115.134 108.465Z" fill="#2EBEA7"/>
    <path d="M130.543 108.465L129.317 107.058L128.091 108.465L129.317 109.872L130.543 108.465Z" fill="#2EBEA7"/>
    <path d="M145.952 108.465L144.726 107.058L143.501 108.465L144.726 109.872L145.952 108.465Z" fill="#2EBEA7"/>
    <path d="M161.361 108.465L160.136 107.058L158.91 108.465L160.136 109.872L161.361 108.465Z" fill="#2EBEA7"/>
    <path d="M176.77 108.465L175.545 107.058L174.319 108.465L175.545 109.872L176.77 108.465Z" fill="#2EBEA7"/>
    <path d="M192.18 108.465L190.954 107.058L189.728 108.465L190.954 109.872L192.18 108.465Z" fill="#2EBEA7"/>
    <path d="M207.589 108.465L206.363 107.058L205.137 108.465L206.363 109.872L207.589 108.465Z" fill="#2EBEA7"/>
    <path d="M222.998 108.465L221.772 107.058L220.546 108.465L221.772 109.872L222.998 108.465Z" fill="#2EBEA7"/>
    <path d="M-23.5484 126.152L-24.7742 124.745L-26 126.152L-24.7742 127.559L-23.5484 126.152Z" fill="#2EBEA7"/>
    <path d="M-8.13921 126.152L-9.365 124.745L-10.5908 126.152L-9.365 127.559L-8.13921 126.152Z" fill="#2EBEA7"/>
    <path d="M7.26984 126.152L6.04404 124.745L4.81825 126.152L6.04404 127.559L7.26984 126.152Z" fill="#2EBEA7"/>
    <path d="M22.6791 126.152L21.4533 124.745L20.2275 126.152L21.4533 127.559L22.6791 126.152Z" fill="#2EBEA7"/>
    <path d="M38.0883 126.152L36.8625 124.745L35.6367 126.152L36.8625 127.559L38.0883 126.152Z" fill="#2EBEA7"/>
    <path d="M53.4973 126.152L52.2715 124.745L51.0457 126.152L52.2715 127.559L53.4973 126.152Z" fill="#2EBEA7"/>
    <path d="M68.9065 126.152L67.6807 124.745L66.4549 126.152L67.6807 127.559L68.9065 126.152Z" fill="#2EBEA7"/>
    <path d="M84.3156 126.152L83.0898 124.745L81.864 126.152L83.0898 127.559L84.3156 126.152Z" fill="#2EBEA7"/>
    <path d="M99.7247 126.152L98.499 124.745L97.2732 126.152L98.499 127.559L99.7247 126.152Z" fill="#2EBEA7"/>
    <path d="M115.134 126.152L113.908 124.745L112.682 126.152L113.908 127.559L115.134 126.152Z" fill="#2EBEA7"/>
    <path d="M130.543 126.152L129.317 124.745L128.091 126.152L129.317 127.559L130.543 126.152Z" fill="#2EBEA7"/>
    <path d="M145.952 126.152L144.726 124.745L143.501 126.152L144.726 127.559L145.952 126.152Z" fill="#2EBEA7"/>
    <path d="M161.361 126.152L160.136 124.745L158.91 126.152L160.136 127.559L161.361 126.152Z" fill="#2EBEA7"/>
    <path d="M176.77 126.152L175.545 124.745L174.319 126.152L175.545 127.559L176.77 126.152Z" fill="#2EBEA7"/>
    <path d="M192.18 126.152L190.954 124.745L189.728 126.152L190.954 127.559L192.18 126.152Z" fill="#2EBEA7"/>
    <path d="M207.589 126.152L206.363 124.745L205.137 126.152L206.363 127.559L207.589 126.152Z" fill="#2EBEA7"/>
    <path d="M222.998 126.152L221.772 124.745L220.546 126.152L221.772 127.559L222.998 126.152Z" fill="#2EBEA7"/>
    <path d="M-23.5484 143.839L-24.7742 142.432L-26 143.839L-24.7742 145.246L-23.5484 143.839Z" fill="#2EBEA7"/>
    <path d="M-8.13921 143.839L-9.365 142.432L-10.5908 143.839L-9.365 145.246L-8.13921 143.839Z" fill="#2EBEA7"/>
    <path d="M7.26984 143.839L6.04404 142.432L4.81825 143.839L6.04404 145.246L7.26984 143.839Z" fill="#2EBEA7"/>
    <path d="M22.6791 143.839L21.4533 142.432L20.2275 143.839L21.4533 145.246L22.6791 143.839Z" fill="#2EBEA7"/>
    <path d="M38.0883 143.839L36.8625 142.432L35.6367 143.839L36.8625 145.246L38.0883 143.839Z" fill="#2EBEA7"/>
    <path d="M53.4973 143.839L52.2715 142.432L51.0457 143.839L52.2715 145.246L53.4973 143.839Z" fill="#2EBEA7"/>
    <path d="M68.9065 143.839L67.6807 142.432L66.4549 143.839L67.6807 145.246L68.9065 143.839Z" fill="#2EBEA7"/>
    <path d="M84.3156 143.839L83.0898 142.432L81.864 143.839L83.0898 145.246L84.3156 143.839Z" fill="#2EBEA7"/>
    <path d="M99.7247 143.839L98.499 142.432L97.2732 143.839L98.499 145.246L99.7247 143.839Z" fill="#2EBEA7"/>
    <path d="M115.134 143.839L113.908 142.432L112.682 143.839L113.908 145.246L115.134 143.839Z" fill="#2EBEA7"/>
    <path d="M130.543 143.839L129.317 142.432L128.091 143.839L129.317 145.246L130.543 143.839Z" fill="#2EBEA7"/>
    <path d="M145.952 143.839L144.726 142.432L143.501 143.839L144.726 145.246L145.952 143.839Z" fill="#2EBEA7"/>
    <path d="M161.361 143.839L160.136 142.432L158.91 143.839L160.136 145.246L161.361 143.839Z" fill="#2EBEA7"/>
    <path d="M176.77 143.839L175.545 142.432L174.319 143.839L175.545 145.246L176.77 143.839Z" fill="#2EBEA7"/>
    <path d="M192.18 143.839L190.954 142.432L189.728 143.839L190.954 145.246L192.18 143.839Z" fill="#2EBEA7"/>
    <path d="M207.589 143.839L206.363 142.432L205.137 143.839L206.363 145.246L207.589 143.839Z" fill="#2EBEA7"/>
    <path d="M222.998 143.839L221.772 142.432L220.546 143.839L221.772 145.246L222.998 143.839Z" fill="#2EBEA7"/>
    <path d="M-23.5484 161.525L-24.7742 160.118L-26 161.525L-24.7742 162.932L-23.5484 161.525Z" fill="#2EBEA7"/>
    <path d="M-8.13921 161.525L-9.365 160.118L-10.5908 161.525L-9.365 162.932L-8.13921 161.525Z" fill="#2EBEA7"/>
    <path d="M7.26984 161.525L6.04404 160.118L4.81825 161.525L6.04404 162.932L7.26984 161.525Z" fill="#2EBEA7"/>
    <path d="M22.6791 161.525L21.4533 160.118L20.2275 161.525L21.4533 162.932L22.6791 161.525Z" fill="#2EBEA7"/>
    <path d="M38.0883 161.525L36.8625 160.118L35.6367 161.525L36.8625 162.932L38.0883 161.525Z" fill="#2EBEA7"/>
    <path d="M53.4973 161.525L52.2715 160.118L51.0457 161.525L52.2715 162.932L53.4973 161.525Z" fill="#2EBEA7"/>
    <path d="M68.9065 161.525L67.6807 160.118L66.4549 161.525L67.6807 162.932L68.9065 161.525Z" fill="#2EBEA7"/>
    <path d="M84.3156 161.525L83.0898 160.118L81.864 161.525L83.0898 162.932L84.3156 161.525Z" fill="#2EBEA7"/>
    <path d="M99.7247 161.525L98.499 160.118L97.2732 161.525L98.499 162.932L99.7247 161.525Z" fill="#2EBEA7"/>
    <path d="M115.134 161.525L113.908 160.118L112.682 161.525L113.908 162.932L115.134 161.525Z" fill="#2EBEA7"/>
    <path d="M130.543 161.525L129.317 160.118L128.091 161.525L129.317 162.932L130.543 161.525Z" fill="#2EBEA7"/>
    <path d="M145.952 161.525L144.726 160.118L143.501 161.525L144.726 162.932L145.952 161.525Z" fill="#2EBEA7"/>
    <path d="M161.361 161.525L160.136 160.118L158.91 161.525L160.136 162.932L161.361 161.525Z" fill="#2EBEA7"/>
    <path d="M176.77 161.525L175.545 160.118L174.319 161.525L175.545 162.932L176.77 161.525Z" fill="#2EBEA7"/>
    <path d="M192.18 161.525L190.954 160.118L189.728 161.525L190.954 162.932L192.18 161.525Z" fill="#2EBEA7"/>
    <path d="M207.589 161.525L206.363 160.118L205.137 161.525L206.363 162.932L207.589 161.525Z" fill="#2EBEA7"/>
    <path d="M222.998 161.525L221.772 160.118L220.546 161.525L221.772 162.932L222.998 161.525Z" fill="#2EBEA7"/>
    <path d="M-23.5484 179.213L-24.7742 177.806L-26 179.213L-24.7742 180.619L-23.5484 179.213Z" fill="#2EBEA7"/>
    <path d="M-8.13921 179.213L-9.365 177.806L-10.5908 179.213L-9.365 180.619L-8.13921 179.213Z" fill="#2EBEA7"/>
    <path d="M7.26984 179.213L6.04404 177.806L4.81825 179.213L6.04404 180.619L7.26984 179.213Z" fill="#2EBEA7"/>
    <path d="M22.6791 179.213L21.4533 177.806L20.2275 179.213L21.4533 180.619L22.6791 179.213Z" fill="#2EBEA7"/>
    <path d="M38.0883 179.213L36.8625 177.806L35.6367 179.213L36.8625 180.619L38.0883 179.213Z" fill="#2EBEA7"/>
    <path d="M53.4973 179.213L52.2715 177.806L51.0457 179.213L52.2715 180.619L53.4973 179.213Z" fill="#2EBEA7"/>
    <path d="M68.9065 179.213L67.6807 177.806L66.4549 179.213L67.6807 180.619L68.9065 179.213Z" fill="#2EBEA7"/>
    <path d="M84.3156 179.213L83.0898 177.806L81.864 179.213L83.0898 180.619L84.3156 179.213Z" fill="#2EBEA7"/>
    <path d="M99.7247 179.213L98.499 177.806L97.2732 179.213L98.499 180.619L99.7247 179.213Z" fill="#2EBEA7"/>
    <path d="M115.134 179.213L113.908 177.806L112.682 179.213L113.908 180.619L115.134 179.213Z" fill="#2EBEA7"/>
    <path d="M130.543 179.213L129.317 177.806L128.091 179.213L129.317 180.619L130.543 179.213Z" fill="#2EBEA7"/>
    <path d="M145.952 179.213L144.726 177.806L143.501 179.213L144.726 180.619L145.952 179.213Z" fill="#2EBEA7"/>
    <path d="M161.361 179.213L160.136 177.806L158.91 179.213L160.136 180.619L161.361 179.213Z" fill="#2EBEA7"/>
    <path d="M176.77 179.213L175.545 177.806L174.319 179.213L175.545 180.619L176.77 179.213Z" fill="#2EBEA7"/>
    <path d="M192.18 179.213L190.954 177.806L189.728 179.213L190.954 180.619L192.18 179.213Z" fill="#2EBEA7"/>
    <path d="M207.589 179.213L206.363 177.806L205.137 179.213L206.363 180.619L207.589 179.213Z" fill="#2EBEA7"/>
    <path d="M222.998 179.213L221.772 177.806L220.546 179.213L221.772 180.619L222.998 179.213Z" fill="#2EBEA7"/>
    <path d="M-23.5484 196.899L-24.7742 195.492L-26 196.899L-24.7742 198.306L-23.5484 196.899Z" fill="#2EBEA7"/>
    <path d="M-8.13921 196.899L-9.365 195.492L-10.5908 196.899L-9.365 198.306L-8.13921 196.899Z" fill="#2EBEA7"/>
    <path d="M7.26984 196.899L6.04404 195.492L4.81825 196.899L6.04404 198.306L7.26984 196.899Z" fill="#2EBEA7"/>
    <path d="M22.6791 196.899L21.4533 195.492L20.2275 196.899L21.4533 198.306L22.6791 196.899Z" fill="#2EBEA7"/>
    <path d="M38.0883 196.899L36.8625 195.492L35.6367 196.899L36.8625 198.306L38.0883 196.899Z" fill="#2EBEA7"/>
    <path d="M53.4973 196.899L52.2715 195.492L51.0457 196.899L52.2715 198.306L53.4973 196.899Z" fill="#2EBEA7"/>
    <path d="M68.9065 196.899L67.6807 195.492L66.4549 196.899L67.6807 198.306L68.9065 196.899Z" fill="#2EBEA7"/>
    <path d="M84.3156 196.899L83.0898 195.492L81.864 196.899L83.0898 198.306L84.3156 196.899Z" fill="#2EBEA7"/>
    <path d="M99.7247 196.899L98.499 195.492L97.2732 196.899L98.499 198.306L99.7247 196.899Z" fill="#2EBEA7"/>
    <path d="M115.134 196.899L113.908 195.492L112.682 196.899L113.908 198.306L115.134 196.899Z" fill="#2EBEA7"/>
    <path d="M130.543 196.899L129.317 195.492L128.091 196.899L129.317 198.306L130.543 196.899Z" fill="#2EBEA7"/>
    <path d="M145.952 196.899L144.726 195.492L143.501 196.899L144.726 198.306L145.952 196.899Z" fill="#2EBEA7"/>
    <path d="M161.361 196.899L160.136 195.492L158.91 196.899L160.136 198.306L161.361 196.899Z" fill="#2EBEA7"/>
    <path d="M176.77 196.899L175.545 195.492L174.319 196.899L175.545 198.306L176.77 196.899Z" fill="#2EBEA7"/>
    <path d="M192.18 196.899L190.954 195.492L189.728 196.899L190.954 198.306L192.18 196.899Z" fill="#2EBEA7"/>
    <path d="M207.589 196.899L206.363 195.492L205.137 196.899L206.363 198.306L207.589 196.899Z" fill="#2EBEA7"/>
    <path d="M222.998 196.899L221.772 195.492L220.546 196.899L221.772 198.306L222.998 196.899Z" fill="#2EBEA7"/>
    <path d="M-23.5484 214.586L-24.7742 213.179L-26 214.586L-24.7742 215.993L-23.5484 214.586Z" fill="#2EBEA7"/>
    <path d="M-8.13921 214.586L-9.365 213.179L-10.5908 214.586L-9.365 215.993L-8.13921 214.586Z" fill="#2EBEA7"/>
    <path d="M7.26984 214.586L6.04404 213.179L4.81825 214.586L6.04404 215.993L7.26984 214.586Z" fill="#2EBEA7"/>
    <path d="M22.6791 214.586L21.4533 213.179L20.2275 214.586L21.4533 215.993L22.6791 214.586Z" fill="#2EBEA7"/>
    <path d="M38.0883 214.586L36.8625 213.179L35.6367 214.586L36.8625 215.993L38.0883 214.586Z" fill="#2EBEA7"/>
    <path d="M53.4973 214.586L52.2715 213.179L51.0457 214.586L52.2715 215.993L53.4973 214.586Z" fill="#2EBEA7"/>
    <path d="M68.9065 214.586L67.6807 213.179L66.4549 214.586L67.6807 215.993L68.9065 214.586Z" fill="#2EBEA7"/>
    <path d="M84.3156 214.586L83.0898 213.179L81.864 214.586L83.0898 215.993L84.3156 214.586Z" fill="#2EBEA7"/>
    <path d="M99.7247 214.586L98.499 213.179L97.2732 214.586L98.499 215.993L99.7247 214.586Z" fill="#2EBEA7"/>
    <path d="M115.134 214.586L113.908 213.179L112.682 214.586L113.908 215.993L115.134 214.586Z" fill="#2EBEA7"/>
    <path d="M130.543 214.586L129.317 213.179L128.091 214.586L129.317 215.993L130.543 214.586Z" fill="#2EBEA7"/>
    <path d="M145.952 214.586L144.726 213.179L143.501 214.586L144.726 215.993L145.952 214.586Z" fill="#2EBEA7"/>
    <path d="M161.361 214.586L160.136 213.179L158.91 214.586L160.136 215.993L161.361 214.586Z" fill="#2EBEA7"/>
    <path d="M176.77 214.586L175.545 213.179L174.319 214.586L175.545 215.993L176.77 214.586Z" fill="#2EBEA7"/>
    <path d="M192.18 214.586L190.954 213.179L189.728 214.586L190.954 215.993L192.18 214.586Z" fill="#2EBEA7"/>
    <path d="M207.589 214.586L206.363 213.179L205.137 214.586L206.363 215.993L207.589 214.586Z" fill="#2EBEA7"/>
    <path d="M222.998 214.586L221.772 213.179L220.546 214.586L221.772 215.993L222.998 214.586Z" fill="#2EBEA7"/>
    <path d="M-23.5484 232.273L-24.7742 230.866L-26 232.273L-24.7742 233.68L-23.5484 232.273Z" fill="#2EBEA7"/>
    <path d="M-8.13921 232.273L-9.365 230.866L-10.5908 232.273L-9.365 233.68L-8.13921 232.273Z" fill="#2EBEA7"/>
    <path d="M7.26984 232.273L6.04404 230.866L4.81825 232.273L6.04404 233.68L7.26984 232.273Z" fill="#2EBEA7"/>
    <path d="M22.6791 232.273L21.4533 230.866L20.2275 232.273L21.4533 233.68L22.6791 232.273Z" fill="#2EBEA7"/>
    <path d="M38.0883 232.273L36.8625 230.866L35.6367 232.273L36.8625 233.68L38.0883 232.273Z" fill="#2EBEA7"/>
    <path d="M53.4973 232.273L52.2715 230.866L51.0457 232.273L52.2715 233.68L53.4973 232.273Z" fill="#2EBEA7"/>
    <path d="M68.9065 232.273L67.6807 230.866L66.4549 232.273L67.6807 233.68L68.9065 232.273Z" fill="#2EBEA7"/>
    <path d="M84.3156 232.273L83.0898 230.866L81.864 232.273L83.0898 233.68L84.3156 232.273Z" fill="#2EBEA7"/>
    <path d="M99.7247 232.273L98.499 230.866L97.2732 232.273L98.499 233.68L99.7247 232.273Z" fill="#2EBEA7"/>
    <path d="M115.134 232.273L113.908 230.866L112.682 232.273L113.908 233.68L115.134 232.273Z" fill="#2EBEA7"/>
    <path d="M130.543 232.273L129.317 230.866L128.091 232.273L129.317 233.68L130.543 232.273Z" fill="#2EBEA7"/>
    <path d="M145.952 232.273L144.726 230.866L143.501 232.273L144.726 233.68L145.952 232.273Z" fill="#2EBEA7"/>
    <path d="M161.361 232.273L160.136 230.866L158.91 232.273L160.136 233.68L161.361 232.273Z" fill="#2EBEA7"/>
    <path d="M176.77 232.273L175.545 230.866L174.319 232.273L175.545 233.68L176.77 232.273Z" fill="#2EBEA7"/>
    <path d="M192.18 232.273L190.954 230.866L189.728 232.273L190.954 233.68L192.18 232.273Z" fill="#2EBEA7"/>
    <path d="M207.589 232.273L206.363 230.866L205.137 232.273L206.363 233.68L207.589 232.273Z" fill="#2EBEA7"/>
    <path d="M222.998 232.273L221.772 230.866L220.546 232.273L221.772 233.68L222.998 232.273Z" fill="#2EBEA7"/>
    <path d="M130.545 2.34363L129.319 0.936646L128.094 2.34363L129.319 3.75061L130.545 2.34363Z" fill="#2EBEA7"/>
    <path d="M145.954 2.34363L144.729 0.936646L143.503 2.34363L144.729 3.75061L145.954 2.34363Z" fill="#2EBEA7"/>
    <path d="M161.363 2.34363L160.138 0.936646L158.912 2.34363L160.138 3.75061L161.363 2.34363Z" fill="#2EBEA7"/>
    <path d="M176.773 2.34363L175.547 0.936646L174.321 2.34363L175.547 3.75061L176.773 2.34363Z" fill="#2EBEA7"/>
    <path d="M192.182 2.34363L190.956 0.936646L189.73 2.34363L190.956 3.75061L192.182 2.34363Z" fill="#2EBEA7"/>
    <path d="M207.591 2.34363L206.365 0.936646L205.139 2.34363L206.365 3.75061L207.591 2.34363Z" fill="#2EBEA7"/>
    <path d="M223 2.34363L221.774 0.936646L220.548 2.34363L221.774 3.75061L223 2.34363Z" fill="#2EBEA7"/>
    <path d="M130.545 20.0306L129.319 18.6236L128.094 20.0306L129.319 21.4376L130.545 20.0306Z" fill="#2EBEA7"/>
    <path d="M145.954 20.0306L144.729 18.6236L143.503 20.0306L144.729 21.4376L145.954 20.0306Z" fill="#2EBEA7"/>
    <path d="M161.363 20.0306L160.138 18.6236L158.912 20.0306L160.138 21.4376L161.363 20.0306Z" fill="#2EBEA7"/>
    <path d="M176.773 20.0306L175.547 18.6236L174.321 20.0306L175.547 21.4376L176.773 20.0306Z" fill="#2EBEA7"/>
    <path d="M192.182 20.0306L190.956 18.6236L189.73 20.0306L190.956 21.4376L192.182 20.0306Z" fill="#2EBEA7"/>
    <path d="M207.591 20.0306L206.365 18.6236L205.139 20.0306L206.365 21.4376L207.591 20.0306Z" fill="#2EBEA7"/>
    <path d="M223 20.0306L221.774 18.6236L220.548 20.0306L221.774 21.4376L223 20.0306Z" fill="#2EBEA7"/>
    <path d="M130.545 37.7171L129.319 36.3101L128.094 37.7171L129.319 39.1241L130.545 37.7171Z" fill="#2EBEA7"/>
    <path d="M145.954 37.7171L144.729 36.3101L143.503 37.7171L144.729 39.1241L145.954 37.7171Z" fill="#2EBEA7"/>
    <path d="M161.363 37.7171L160.138 36.3101L158.912 37.7171L160.138 39.1241L161.363 37.7171Z" fill="#2EBEA7"/>
    <path d="M176.773 37.7171L175.547 36.3101L174.321 37.7171L175.547 39.1241L176.773 37.7171Z" fill="#2EBEA7"/>
    <path d="M192.182 37.7171L190.956 36.3101L189.73 37.7171L190.956 39.1241L192.182 37.7171Z" fill="#2EBEA7"/>
    <path d="M207.591 37.7171L206.365 36.3101L205.139 37.7171L206.365 39.1241L207.591 37.7171Z" fill="#2EBEA7"/>
    <path d="M223 37.7171L221.774 36.3101L220.548 37.7171L221.774 39.1241L223 37.7171Z" fill="#2EBEA7"/>
    <path d="M130.545 55.4043L129.319 53.9973L128.094 55.4043L129.319 56.8113L130.545 55.4043Z" fill="#2EBEA7"/>
    <path d="M145.954 55.4043L144.729 53.9973L143.503 55.4043L144.729 56.8113L145.954 55.4043Z" fill="#2EBEA7"/>
    <path d="M161.363 55.4043L160.138 53.9973L158.912 55.4043L160.138 56.8113L161.363 55.4043Z" fill="#2EBEA7"/>
    <path d="M176.773 55.4043L175.547 53.9973L174.321 55.4043L175.547 56.8113L176.773 55.4043Z" fill="#2EBEA7"/>
    <path d="M192.182 55.4043L190.956 53.9973L189.73 55.4043L190.956 56.8113L192.182 55.4043Z" fill="#2EBEA7"/>
    <path d="M207.591 55.4043L206.365 53.9973L205.139 55.4043L206.365 56.8113L207.591 55.4043Z" fill="#2EBEA7"/>
    <path d="M223 55.4043L221.774 53.9973L220.548 55.4043L221.774 56.8113L223 55.4043Z" fill="#2EBEA7"/>
    <path d="M130.545 73.0912L129.319 71.6843L128.094 73.0912L129.319 74.4982L130.545 73.0912Z" fill="#2EBEA7"/>
    <path d="M145.954 73.0912L144.729 71.6843L143.503 73.0912L144.729 74.4982L145.954 73.0912Z" fill="#2EBEA7"/>
    <path d="M161.363 73.0912L160.138 71.6843L158.912 73.0912L160.138 74.4982L161.363 73.0912Z" fill="#2EBEA7"/>
    <path d="M176.773 73.0912L175.547 71.6843L174.321 73.0912L175.547 74.4982L176.773 73.0912Z" fill="#2EBEA7"/>
    <path d="M192.182 73.0912L190.956 71.6843L189.73 73.0912L190.956 74.4982L192.182 73.0912Z" fill="#2EBEA7"/>
    <path d="M207.591 73.0912L206.365 71.6843L205.139 73.0912L206.365 74.4982L207.591 73.0912Z" fill="#2EBEA7"/>
    <path d="M223 73.0912L221.774 71.6843L220.548 73.0912L221.774 74.4982L223 73.0912Z" fill="#2EBEA7"/>
    <path d="M130.545 90.778L129.319 89.371L128.094 90.778L129.319 92.185L130.545 90.778Z" fill="#2EBEA7"/>
    <path d="M145.954 90.778L144.729 89.371L143.503 90.778L144.729 92.185L145.954 90.778Z" fill="#2EBEA7"/>
    <path d="M161.363 90.778L160.138 89.371L158.912 90.778L160.138 92.185L161.363 90.778Z" fill="#2EBEA7"/>
    <path d="M176.773 90.778L175.547 89.371L174.321 90.778L175.547 92.185L176.773 90.778Z" fill="#2EBEA7"/>
    <path d="M192.182 90.778L190.956 89.371L189.73 90.778L190.956 92.185L192.182 90.778Z" fill="#2EBEA7"/>
    <path d="M207.591 90.778L206.365 89.371L205.139 90.778L206.365 92.185L207.591 90.778Z" fill="#2EBEA7"/>
    <path d="M223 90.778L221.774 89.371L220.548 90.778L221.774 92.185L223 90.778Z" fill="#2EBEA7"/>
    <path d="M130.545 108.465L129.319 107.058L128.094 108.465L129.319 109.872L130.545 108.465Z" fill="#2EBEA7"/>
    <path d="M145.954 108.465L144.729 107.058L143.503 108.465L144.729 109.872L145.954 108.465Z" fill="#2EBEA7"/>
    <path d="M161.363 108.465L160.138 107.058L158.912 108.465L160.138 109.872L161.363 108.465Z" fill="#2EBEA7"/>
    <path d="M176.773 108.465L175.547 107.058L174.321 108.465L175.547 109.872L176.773 108.465Z" fill="#2EBEA7"/>
    <path d="M192.182 108.465L190.956 107.058L189.73 108.465L190.956 109.872L192.182 108.465Z" fill="#2EBEA7"/>
    <path d="M207.591 108.465L206.365 107.058L205.139 108.465L206.365 109.872L207.591 108.465Z" fill="#2EBEA7"/>
    <path d="M223 108.465L221.774 107.058L220.548 108.465L221.774 109.872L223 108.465Z" fill="#2EBEA7"/>
    <path d="M130.545 126.152L129.319 124.745L128.094 126.152L129.319 127.559L130.545 126.152Z" fill="#2EBEA7"/>
    <path d="M145.954 126.152L144.729 124.745L143.503 126.152L144.729 127.559L145.954 126.152Z" fill="#2EBEA7"/>
    <path d="M161.363 126.152L160.138 124.745L158.912 126.152L160.138 127.559L161.363 126.152Z" fill="#2EBEA7"/>
    <path d="M176.773 126.152L175.547 124.745L174.321 126.152L175.547 127.559L176.773 126.152Z" fill="#2EBEA7"/>
    <path d="M192.182 126.152L190.956 124.745L189.73 126.152L190.956 127.559L192.182 126.152Z" fill="#2EBEA7"/>
    <path d="M207.591 126.152L206.365 124.745L205.139 126.152L206.365 127.559L207.591 126.152Z" fill="#2EBEA7"/>
    <path d="M223 126.152L221.774 124.745L220.548 126.152L221.774 127.559L223 126.152Z" fill="#2EBEA7"/>
    <path d="M130.545 143.839L129.319 142.432L128.094 143.839L129.319 145.246L130.545 143.839Z" fill="#2EBEA7"/>
    <path d="M145.954 143.839L144.729 142.432L143.503 143.839L144.729 145.246L145.954 143.839Z" fill="#2EBEA7"/>
    <path d="M161.363 143.839L160.138 142.432L158.912 143.839L160.138 145.246L161.363 143.839Z" fill="#2EBEA7"/>
    <path d="M176.773 143.839L175.547 142.432L174.321 143.839L175.547 145.246L176.773 143.839Z" fill="#2EBEA7"/>
    <path d="M192.182 143.839L190.956 142.432L189.73 143.839L190.956 145.246L192.182 143.839Z" fill="#2EBEA7"/>
    <path d="M207.591 143.839L206.365 142.432L205.139 143.839L206.365 145.246L207.591 143.839Z" fill="#2EBEA7"/>
    <path d="M223 143.839L221.774 142.432L220.548 143.839L221.774 145.246L223 143.839Z" fill="#2EBEA7"/>
    <path d="M130.545 161.525L129.319 160.118L128.094 161.525L129.319 162.932L130.545 161.525Z" fill="#2EBEA7"/>
    <path d="M145.954 161.525L144.729 160.118L143.503 161.525L144.729 162.932L145.954 161.525Z" fill="#2EBEA7"/>
    <path d="M161.363 161.525L160.138 160.118L158.912 161.525L160.138 162.932L161.363 161.525Z" fill="#2EBEA7"/>
    <path d="M176.773 161.525L175.547 160.118L174.321 161.525L175.547 162.932L176.773 161.525Z" fill="#2EBEA7"/>
    <path d="M192.182 161.525L190.956 160.118L189.73 161.525L190.956 162.932L192.182 161.525Z" fill="#2EBEA7"/>
    <path d="M207.591 161.525L206.365 160.118L205.139 161.525L206.365 162.932L207.591 161.525Z" fill="#2EBEA7"/>
    <path d="M223 161.525L221.774 160.118L220.548 161.525L221.774 162.932L223 161.525Z" fill="#2EBEA7"/>
    <path d="M130.545 179.213L129.319 177.806L128.094 179.213L129.319 180.619L130.545 179.213Z" fill="#2EBEA7"/>
    <path d="M145.954 179.213L144.729 177.806L143.503 179.213L144.729 180.619L145.954 179.213Z" fill="#2EBEA7"/>
    <path d="M161.363 179.213L160.138 177.806L158.912 179.213L160.138 180.619L161.363 179.213Z" fill="#2EBEA7"/>
    <path d="M176.773 179.213L175.547 177.806L174.321 179.213L175.547 180.619L176.773 179.213Z" fill="#2EBEA7"/>
    <path d="M192.182 179.213L190.956 177.806L189.73 179.213L190.956 180.619L192.182 179.213Z" fill="#2EBEA7"/>
    <path d="M207.591 179.213L206.365 177.806L205.139 179.213L206.365 180.619L207.591 179.213Z" fill="#2EBEA7"/>
    <path d="M223 179.213L221.774 177.806L220.548 179.213L221.774 180.619L223 179.213Z" fill="#2EBEA7"/>
    <path d="M130.545 196.899L129.319 195.492L128.094 196.899L129.319 198.306L130.545 196.899Z" fill="#2EBEA7"/>
    <path d="M145.954 196.899L144.729 195.492L143.503 196.899L144.729 198.306L145.954 196.899Z" fill="#2EBEA7"/>
    <path d="M161.363 196.899L160.138 195.492L158.912 196.899L160.138 198.306L161.363 196.899Z" fill="#2EBEA7"/>
    <path d="M176.773 196.899L175.547 195.492L174.321 196.899L175.547 198.306L176.773 196.899Z" fill="#2EBEA7"/>
    <path d="M192.182 196.899L190.956 195.492L189.73 196.899L190.956 198.306L192.182 196.899Z" fill="#2EBEA7"/>
    <path d="M207.591 196.899L206.365 195.492L205.139 196.899L206.365 198.306L207.591 196.899Z" fill="#2EBEA7"/>
    <path d="M223 196.899L221.774 195.492L220.548 196.899L221.774 198.306L223 196.899Z" fill="#2EBEA7"/>
    <path d="M130.545 214.586L129.319 213.179L128.094 214.586L129.319 215.993L130.545 214.586Z" fill="#2EBEA7"/>
    <path d="M145.954 214.586L144.729 213.179L143.503 214.586L144.729 215.993L145.954 214.586Z" fill="#2EBEA7"/>
    <path d="M161.363 214.586L160.138 213.179L158.912 214.586L160.138 215.993L161.363 214.586Z" fill="#2EBEA7"/>
    <path d="M176.773 214.586L175.547 213.179L174.321 214.586L175.547 215.993L176.773 214.586Z" fill="#2EBEA7"/>
    <path d="M192.182 214.586L190.956 213.179L189.73 214.586L190.956 215.993L192.182 214.586Z" fill="#2EBEA7"/>
    <path d="M207.591 214.586L206.365 213.179L205.139 214.586L206.365 215.993L207.591 214.586Z" fill="#2EBEA7"/>
    <path d="M223 214.586L221.774 213.179L220.548 214.586L221.774 215.993L223 214.586Z" fill="#2EBEA7"/>
    <path d="M130.545 232.273L129.319 230.866L128.094 232.273L129.319 233.68L130.545 232.273Z" fill="#2EBEA7"/>
    <path d="M145.954 232.273L144.729 230.866L143.503 232.273L144.729 233.68L145.954 232.273Z" fill="#2EBEA7"/>
    <path d="M161.363 232.273L160.138 230.866L158.912 232.273L160.138 233.68L161.363 232.273Z" fill="#2EBEA7"/>
    <path d="M176.773 232.273L175.547 230.866L174.321 232.273L175.547 233.68L176.773 232.273Z" fill="#2EBEA7"/>
    <path d="M192.182 232.273L190.956 230.866L189.73 232.273L190.956 233.68L192.182 232.273Z" fill="#2EBEA7"/>
    <path d="M207.591 232.273L206.365 230.866L205.139 232.273L206.365 233.68L207.591 232.273Z" fill="#2EBEA7"/>
    <path d="M223 232.273L221.774 230.866L220.548 232.273L221.774 233.68L223 232.273Z" fill="#2EBEA7"/>
    <path d="M-23.5484 2.34364L-24.7742 0.936661L-26 2.34364L-24.7742 3.75063L-23.5484 2.34364Z" stroke="#34A275"/>
    <path d="M-8.13921 2.34364L-9.365 0.936661L-10.5908 2.34364L-9.365 3.75063L-8.13921 2.34364Z" stroke="#34A275"/>
    <path d="M7.26984 2.34364L6.04404 0.936661L4.81825 2.34364L6.04404 3.75063L7.26984 2.34364Z" stroke="#34A275"/>
    <path d="M22.6791 2.34364L21.4533 0.936661L20.2275 2.34364L21.4533 3.75063L22.6791 2.34364Z" stroke="#34A275"/>
    <path d="M38.0883 2.34364L36.8625 0.936661L35.6367 2.34364L36.8625 3.75063L38.0883 2.34364Z" stroke="#34A275"/>
    <path d="M53.4973 2.34364L52.2715 0.936661L51.0457 2.34364L52.2715 3.75063L53.4973 2.34364Z" stroke="#34A275"/>
    <path d="M68.9065 2.34364L67.6807 0.936661L66.4549 2.34364L67.6807 3.75063L68.9065 2.34364Z" stroke="#34A275"/>
    <path d="M84.3156 2.34364L83.0898 0.936661L81.864 2.34364L83.0898 3.75063L84.3156 2.34364Z" stroke="#34A275"/>
    <path d="M99.7247 2.34364L98.499 0.936661L97.2732 2.34364L98.499 3.75063L99.7247 2.34364Z" stroke="#34A275"/>
    <path d="M115.134 2.34364L113.908 0.936661L112.682 2.34364L113.908 3.75063L115.134 2.34364Z" stroke="#34A275"/>
    <path d="M130.543 2.34364L129.317 0.936661L128.091 2.34364L129.317 3.75063L130.543 2.34364Z" stroke="#34A275"/>
    <path d="M145.952 2.34364L144.726 0.936661L143.501 2.34364L144.726 3.75063L145.952 2.34364Z" stroke="#34A275"/>
    <path d="M161.361 2.34364L160.136 0.936661L158.91 2.34364L160.136 3.75063L161.361 2.34364Z" stroke="#34A275"/>
    <path d="M176.77 2.34364L175.545 0.936661L174.319 2.34364L175.545 3.75063L176.77 2.34364Z" stroke="#34A275"/>
    <path d="M192.18 2.34364L190.954 0.936661L189.728 2.34364L190.954 3.75063L192.18 2.34364Z" stroke="#34A275"/>
    <path d="M207.589 2.34364L206.363 0.936661L205.137 2.34364L206.363 3.75063L207.589 2.34364Z" stroke="#34A275"/>
    <path d="M222.998 2.34364L221.772 0.936661L220.546 2.34364L221.772 3.75063L222.998 2.34364Z" stroke="#34A275"/>
    <path d="M-23.5484 20.0306L-24.7742 18.6236L-26 20.0306L-24.7742 21.4376L-23.5484 20.0306Z" stroke="#34A275"/>
    <path d="M-8.13921 20.0306L-9.365 18.6236L-10.5908 20.0306L-9.365 21.4376L-8.13921 20.0306Z" stroke="#34A275"/>
    <path d="M7.26984 20.0306L6.04404 18.6236L4.81825 20.0306L6.04404 21.4376L7.26984 20.0306Z" stroke="#34A275"/>
    <path d="M22.6791 20.0306L21.4533 18.6236L20.2275 20.0306L21.4533 21.4376L22.6791 20.0306Z" stroke="#34A275"/>
    <path d="M38.0883 20.0306L36.8625 18.6236L35.6367 20.0306L36.8625 21.4376L38.0883 20.0306Z" stroke="#34A275"/>
    <path d="M53.4973 20.0306L52.2715 18.6236L51.0457 20.0306L52.2715 21.4376L53.4973 20.0306Z" stroke="#34A275"/>
    <path d="M68.9065 20.0306L67.6807 18.6236L66.4549 20.0306L67.6807 21.4376L68.9065 20.0306Z" stroke="#34A275"/>
    <path d="M84.3156 20.0306L83.0898 18.6236L81.864 20.0306L83.0898 21.4376L84.3156 20.0306Z" stroke="#34A275"/>
    <path d="M99.7247 20.0306L98.499 18.6236L97.2732 20.0306L98.499 21.4376L99.7247 20.0306Z" stroke="#34A275"/>
    <path d="M115.134 20.0306L113.908 18.6236L112.682 20.0306L113.908 21.4376L115.134 20.0306Z" stroke="#34A275"/>
    <path d="M130.543 20.0306L129.317 18.6236L128.091 20.0306L129.317 21.4376L130.543 20.0306Z" stroke="#34A275"/>
    <path d="M145.952 20.0306L144.726 18.6236L143.501 20.0306L144.726 21.4376L145.952 20.0306Z" stroke="#34A275"/>
    <path d="M161.361 20.0306L160.136 18.6236L158.91 20.0306L160.136 21.4376L161.361 20.0306Z" stroke="#34A275"/>
    <path d="M176.77 20.0306L175.545 18.6236L174.319 20.0306L175.545 21.4376L176.77 20.0306Z" stroke="#34A275"/>
    <path d="M192.18 20.0306L190.954 18.6236L189.728 20.0306L190.954 21.4376L192.18 20.0306Z" stroke="#34A275"/>
    <path d="M207.589 20.0306L206.363 18.6236L205.137 20.0306L206.363 21.4376L207.589 20.0306Z" stroke="#34A275"/>
    <path d="M222.998 20.0306L221.772 18.6236L220.546 20.0306L221.772 21.4376L222.998 20.0306Z" stroke="#34A275"/>
    <path d="M-23.5484 37.7171L-24.7742 36.3102L-26 37.7171L-24.7742 39.1241L-23.5484 37.7171Z" stroke="#34A275"/>
    <path d="M-8.13921 37.7171L-9.365 36.3102L-10.5908 37.7171L-9.365 39.1241L-8.13921 37.7171Z" stroke="#34A275"/>
    <path d="M7.26984 37.7171L6.04404 36.3102L4.81825 37.7171L6.04404 39.1241L7.26984 37.7171Z" stroke="#34A275"/>
    <path d="M22.6791 37.7171L21.4533 36.3102L20.2275 37.7171L21.4533 39.1241L22.6791 37.7171Z" stroke="#34A275"/>
    <path d="M38.0883 37.7171L36.8625 36.3102L35.6367 37.7171L36.8625 39.1241L38.0883 37.7171Z" stroke="#34A275"/>
    <path d="M53.4973 37.7171L52.2715 36.3102L51.0457 37.7171L52.2715 39.1241L53.4973 37.7171Z" stroke="#34A275"/>
    <path d="M68.9065 37.7171L67.6807 36.3102L66.4549 37.7171L67.6807 39.1241L68.9065 37.7171Z" stroke="#34A275"/>
    <path d="M84.3156 37.7171L83.0898 36.3102L81.864 37.7171L83.0898 39.1241L84.3156 37.7171Z" stroke="#34A275"/>
    <path d="M99.7247 37.7171L98.499 36.3102L97.2732 37.7171L98.499 39.1241L99.7247 37.7171Z" stroke="#34A275"/>
    <path d="M115.134 37.7171L113.908 36.3102L112.682 37.7171L113.908 39.1241L115.134 37.7171Z" stroke="#34A275"/>
    <path d="M130.543 37.7171L129.317 36.3102L128.091 37.7171L129.317 39.1241L130.543 37.7171Z" stroke="#34A275"/>
    <path d="M145.952 37.7171L144.726 36.3102L143.501 37.7171L144.726 39.1241L145.952 37.7171Z" stroke="#34A275"/>
    <path d="M161.361 37.7171L160.136 36.3102L158.91 37.7171L160.136 39.1241L161.361 37.7171Z" stroke="#34A275"/>
    <path d="M176.77 37.7171L175.545 36.3102L174.319 37.7171L175.545 39.1241L176.77 37.7171Z" stroke="#34A275"/>
    <path d="M192.18 37.7171L190.954 36.3102L189.728 37.7171L190.954 39.1241L192.18 37.7171Z" stroke="#34A275"/>
    <path d="M207.589 37.7171L206.363 36.3102L205.137 37.7171L206.363 39.1241L207.589 37.7171Z" stroke="#34A275"/>
    <path d="M222.998 37.7171L221.772 36.3102L220.546 37.7171L221.772 39.1241L222.998 37.7171Z" stroke="#34A275"/>
    <path d="M-23.5484 55.4043L-24.7742 53.9973L-26 55.4043L-24.7742 56.8113L-23.5484 55.4043Z" stroke="#34A275"/>
    <path d="M-8.13921 55.4043L-9.365 53.9973L-10.5908 55.4043L-9.365 56.8113L-8.13921 55.4043Z" stroke="#34A275"/>
    <path d="M7.26984 55.4043L6.04404 53.9973L4.81825 55.4043L6.04404 56.8113L7.26984 55.4043Z" stroke="#34A275"/>
    <path d="M22.6791 55.4043L21.4533 53.9973L20.2275 55.4043L21.4533 56.8113L22.6791 55.4043Z" stroke="#34A275"/>
    <path d="M38.0883 55.4043L36.8625 53.9973L35.6367 55.4043L36.8625 56.8113L38.0883 55.4043Z" stroke="#34A275"/>
    <path d="M53.4973 55.4043L52.2715 53.9973L51.0457 55.4043L52.2715 56.8113L53.4973 55.4043Z" stroke="#34A275"/>
    <path d="M68.9065 55.4043L67.6807 53.9973L66.4549 55.4043L67.6807 56.8113L68.9065 55.4043Z" stroke="#34A275"/>
    <path d="M84.3156 55.4043L83.0898 53.9973L81.864 55.4043L83.0898 56.8113L84.3156 55.4043Z" stroke="#34A275"/>
    <path d="M99.7247 55.4043L98.499 53.9973L97.2732 55.4043L98.499 56.8113L99.7247 55.4043Z" stroke="#34A275"/>
    <path d="M115.134 55.4043L113.908 53.9973L112.682 55.4043L113.908 56.8113L115.134 55.4043Z" stroke="#34A275"/>
    <path d="M130.543 55.4043L129.317 53.9973L128.091 55.4043L129.317 56.8113L130.543 55.4043Z" stroke="#34A275"/>
    <path d="M145.952 55.4043L144.726 53.9973L143.501 55.4043L144.726 56.8113L145.952 55.4043Z" stroke="#34A275"/>
    <path d="M161.361 55.4043L160.136 53.9973L158.91 55.4043L160.136 56.8113L161.361 55.4043Z" stroke="#34A275"/>
    <path d="M176.77 55.4043L175.545 53.9973L174.319 55.4043L175.545 56.8113L176.77 55.4043Z" stroke="#34A275"/>
    <path d="M192.18 55.4043L190.954 53.9973L189.728 55.4043L190.954 56.8113L192.18 55.4043Z" stroke="#34A275"/>
    <path d="M207.589 55.4043L206.363 53.9973L205.137 55.4043L206.363 56.8113L207.589 55.4043Z" stroke="#34A275"/>
    <path d="M222.998 55.4043L221.772 53.9973L220.546 55.4043L221.772 56.8113L222.998 55.4043Z" stroke="#34A275"/>
    <path d="M-23.5484 73.0913L-24.7742 71.6843L-26 73.0913L-24.7742 74.4982L-23.5484 73.0913Z" stroke="#34A275"/>
    <path d="M-8.13921 73.0913L-9.365 71.6843L-10.5908 73.0913L-9.365 74.4982L-8.13921 73.0913Z" stroke="#34A275"/>
    <path d="M7.26984 73.0913L6.04404 71.6843L4.81825 73.0913L6.04404 74.4982L7.26984 73.0913Z" stroke="#34A275"/>
    <path d="M22.6791 73.0913L21.4533 71.6843L20.2275 73.0913L21.4533 74.4982L22.6791 73.0913Z" stroke="#34A275"/>
    <path d="M38.0883 73.0913L36.8625 71.6843L35.6367 73.0913L36.8625 74.4982L38.0883 73.0913Z" stroke="#34A275"/>
    <path d="M53.4973 73.0913L52.2715 71.6843L51.0457 73.0913L52.2715 74.4982L53.4973 73.0913Z" stroke="#34A275"/>
    <path d="M68.9065 73.0913L67.6807 71.6843L66.4549 73.0913L67.6807 74.4982L68.9065 73.0913Z" stroke="#34A275"/>
    <path d="M84.3156 73.0913L83.0898 71.6843L81.864 73.0913L83.0898 74.4982L84.3156 73.0913Z" stroke="#34A275"/>
    <path d="M99.7247 73.0913L98.499 71.6843L97.2732 73.0913L98.499 74.4982L99.7247 73.0913Z" stroke="#34A275"/>
    <path d="M115.134 73.0913L113.908 71.6843L112.682 73.0913L113.908 74.4982L115.134 73.0913Z" stroke="#34A275"/>
    <path d="M130.543 73.0913L129.317 71.6843L128.091 73.0913L129.317 74.4982L130.543 73.0913Z" stroke="#34A275"/>
    <path d="M145.952 73.0913L144.726 71.6843L143.501 73.0913L144.726 74.4982L145.952 73.0913Z" stroke="#34A275"/>
    <path d="M161.361 73.0913L160.136 71.6843L158.91 73.0913L160.136 74.4982L161.361 73.0913Z" stroke="#34A275"/>
    <path d="M176.77 73.0913L175.545 71.6843L174.319 73.0913L175.545 74.4982L176.77 73.0913Z" stroke="#34A275"/>
    <path d="M192.18 73.0913L190.954 71.6843L189.728 73.0913L190.954 74.4982L192.18 73.0913Z" stroke="#34A275"/>
    <path d="M207.589 73.0913L206.363 71.6843L205.137 73.0913L206.363 74.4982L207.589 73.0913Z" stroke="#34A275"/>
    <path d="M222.998 73.0913L221.772 71.6843L220.546 73.0913L221.772 74.4982L222.998 73.0913Z" stroke="#34A275"/>
    <path d="M-23.5484 90.778L-24.7742 89.371L-26 90.778L-24.7742 92.185L-23.5484 90.778Z" stroke="#34A275"/>
    <path d="M-8.13921 90.778L-9.365 89.371L-10.5908 90.778L-9.365 92.185L-8.13921 90.778Z" stroke="#34A275"/>
    <path d="M7.26984 90.778L6.04404 89.371L4.81825 90.778L6.04404 92.185L7.26984 90.778Z" stroke="#34A275"/>
    <path d="M22.6791 90.778L21.4533 89.371L20.2275 90.778L21.4533 92.185L22.6791 90.778Z" stroke="#34A275"/>
    <path d="M38.0883 90.778L36.8625 89.371L35.6367 90.778L36.8625 92.185L38.0883 90.778Z" stroke="#34A275"/>
    <path d="M53.4973 90.778L52.2715 89.371L51.0457 90.778L52.2715 92.185L53.4973 90.778Z" stroke="#34A275"/>
    <path d="M68.9065 90.778L67.6807 89.371L66.4549 90.778L67.6807 92.185L68.9065 90.778Z" stroke="#34A275"/>
    <path d="M84.3156 90.778L83.0898 89.371L81.864 90.778L83.0898 92.185L84.3156 90.778Z" stroke="#34A275"/>
    <path d="M99.7247 90.778L98.499 89.371L97.2732 90.778L98.499 92.185L99.7247 90.778Z" stroke="#34A275"/>
    <path d="M115.134 90.778L113.908 89.371L112.682 90.778L113.908 92.185L115.134 90.778Z" stroke="#34A275"/>
    <path d="M130.543 90.778L129.317 89.371L128.091 90.778L129.317 92.185L130.543 90.778Z" stroke="#34A275"/>
    <path d="M145.952 90.778L144.726 89.371L143.501 90.778L144.726 92.185L145.952 90.778Z" stroke="#34A275"/>
    <path d="M161.361 90.778L160.136 89.371L158.91 90.778L160.136 92.185L161.361 90.778Z" stroke="#34A275"/>
    <path d="M176.77 90.778L175.545 89.371L174.319 90.778L175.545 92.185L176.77 90.778Z" stroke="#34A275"/>
    <path d="M192.18 90.778L190.954 89.371L189.728 90.778L190.954 92.185L192.18 90.778Z" stroke="#34A275"/>
    <path d="M207.589 90.778L206.363 89.371L205.137 90.778L206.363 92.185L207.589 90.778Z" stroke="#34A275"/>
    <path d="M222.998 90.778L221.772 89.371L220.546 90.778L221.772 92.185L222.998 90.778Z" stroke="#34A275"/>
    <path d="M-23.5484 108.465L-24.7742 107.058L-26 108.465L-24.7742 109.872L-23.5484 108.465Z" stroke="#34A275"/>
    <path d="M-8.13921 108.465L-9.365 107.058L-10.5908 108.465L-9.365 109.872L-8.13921 108.465Z" stroke="#34A275"/>
    <path d="M7.26984 108.465L6.04404 107.058L4.81825 108.465L6.04404 109.872L7.26984 108.465Z" stroke="#34A275"/>
    <path d="M22.6791 108.465L21.4533 107.058L20.2275 108.465L21.4533 109.872L22.6791 108.465Z" stroke="#34A275"/>
    <path d="M38.0883 108.465L36.8625 107.058L35.6367 108.465L36.8625 109.872L38.0883 108.465Z" stroke="#34A275"/>
    <path d="M53.4973 108.465L52.2715 107.058L51.0457 108.465L52.2715 109.872L53.4973 108.465Z" stroke="#34A275"/>
    <path d="M68.9065 108.465L67.6807 107.058L66.4549 108.465L67.6807 109.872L68.9065 108.465Z" stroke="#34A275"/>
    <path d="M84.3156 108.465L83.0898 107.058L81.864 108.465L83.0898 109.872L84.3156 108.465Z" stroke="#34A275"/>
    <path d="M99.7247 108.465L98.499 107.058L97.2732 108.465L98.499 109.872L99.7247 108.465Z" stroke="#34A275"/>
    <path d="M115.134 108.465L113.908 107.058L112.682 108.465L113.908 109.872L115.134 108.465Z" stroke="#34A275"/>
    <path d="M130.543 108.465L129.317 107.058L128.091 108.465L129.317 109.872L130.543 108.465Z" stroke="#34A275"/>
    <path d="M145.952 108.465L144.726 107.058L143.501 108.465L144.726 109.872L145.952 108.465Z" stroke="#34A275"/>
    <path d="M161.361 108.465L160.136 107.058L158.91 108.465L160.136 109.872L161.361 108.465Z" stroke="#34A275"/>
    <path d="M176.77 108.465L175.545 107.058L174.319 108.465L175.545 109.872L176.77 108.465Z" stroke="#34A275"/>
    <path d="M192.18 108.465L190.954 107.058L189.728 108.465L190.954 109.872L192.18 108.465Z" stroke="#34A275"/>
    <path d="M207.589 108.465L206.363 107.058L205.137 108.465L206.363 109.872L207.589 108.465Z" stroke="#34A275"/>
    <path d="M222.998 108.465L221.772 107.058L220.546 108.465L221.772 109.872L222.998 108.465Z" stroke="#34A275"/>
    <path d="M-23.5484 126.152L-24.7742 124.745L-26 126.152L-24.7742 127.559L-23.5484 126.152Z" stroke="#34A275"/>
    <path d="M-8.13921 126.152L-9.365 124.745L-10.5908 126.152L-9.365 127.559L-8.13921 126.152Z" stroke="#34A275"/>
    <path d="M7.26984 126.152L6.04404 124.745L4.81825 126.152L6.04404 127.559L7.26984 126.152Z" stroke="#34A275"/>
    <path d="M22.6791 126.152L21.4533 124.745L20.2275 126.152L21.4533 127.559L22.6791 126.152Z" stroke="#34A275"/>
    <path d="M38.0883 126.152L36.8625 124.745L35.6367 126.152L36.8625 127.559L38.0883 126.152Z" stroke="#34A275"/>
    <path d="M53.4973 126.152L52.2715 124.745L51.0457 126.152L52.2715 127.559L53.4973 126.152Z" stroke="#34A275"/>
    <path d="M68.9065 126.152L67.6807 124.745L66.4549 126.152L67.6807 127.559L68.9065 126.152Z" stroke="#34A275"/>
    <path d="M84.3156 126.152L83.0898 124.745L81.864 126.152L83.0898 127.559L84.3156 126.152Z" stroke="#34A275"/>
    <path d="M99.7247 126.152L98.499 124.745L97.2732 126.152L98.499 127.559L99.7247 126.152Z" stroke="#34A275"/>
    <path d="M115.134 126.152L113.908 124.745L112.682 126.152L113.908 127.559L115.134 126.152Z" stroke="#34A275"/>
    <path d="M130.543 126.152L129.317 124.745L128.091 126.152L129.317 127.559L130.543 126.152Z" stroke="#34A275"/>
    <path d="M145.952 126.152L144.726 124.745L143.501 126.152L144.726 127.559L145.952 126.152Z" stroke="#34A275"/>
    <path d="M161.361 126.152L160.136 124.745L158.91 126.152L160.136 127.559L161.361 126.152Z" stroke="#34A275"/>
    <path d="M176.77 126.152L175.545 124.745L174.319 126.152L175.545 127.559L176.77 126.152Z" stroke="#34A275"/>
    <path d="M192.18 126.152L190.954 124.745L189.728 126.152L190.954 127.559L192.18 126.152Z" stroke="#34A275"/>
    <path d="M207.589 126.152L206.363 124.745L205.137 126.152L206.363 127.559L207.589 126.152Z" stroke="#34A275"/>
    <path d="M222.998 126.152L221.772 124.745L220.546 126.152L221.772 127.559L222.998 126.152Z" stroke="#34A275"/>
    <path d="M-23.5484 143.839L-24.7742 142.432L-26 143.839L-24.7742 145.246L-23.5484 143.839Z" stroke="#34A275"/>
    <path d="M-8.13921 143.839L-9.365 142.432L-10.5908 143.839L-9.365 145.246L-8.13921 143.839Z" stroke="#34A275"/>
    <path d="M7.26984 143.839L6.04404 142.432L4.81825 143.839L6.04404 145.246L7.26984 143.839Z" stroke="#34A275"/>
    <path d="M22.6791 143.839L21.4533 142.432L20.2275 143.839L21.4533 145.246L22.6791 143.839Z" stroke="#34A275"/>
    <path d="M38.0883 143.839L36.8625 142.432L35.6367 143.839L36.8625 145.246L38.0883 143.839Z" stroke="#34A275"/>
    <path d="M53.4973 143.839L52.2715 142.432L51.0457 143.839L52.2715 145.246L53.4973 143.839Z" stroke="#34A275"/>
    <path d="M68.9065 143.839L67.6807 142.432L66.4549 143.839L67.6807 145.246L68.9065 143.839Z" stroke="#34A275"/>
    <path d="M84.3156 143.839L83.0898 142.432L81.864 143.839L83.0898 145.246L84.3156 143.839Z" stroke="#34A275"/>
    <path d="M99.7247 143.839L98.499 142.432L97.2732 143.839L98.499 145.246L99.7247 143.839Z" stroke="#34A275"/>
    <path d="M115.134 143.839L113.908 142.432L112.682 143.839L113.908 145.246L115.134 143.839Z" stroke="#34A275"/>
    <path d="M130.543 143.839L129.317 142.432L128.091 143.839L129.317 145.246L130.543 143.839Z" stroke="#34A275"/>
    <path d="M145.952 143.839L144.726 142.432L143.501 143.839L144.726 145.246L145.952 143.839Z" stroke="#34A275"/>
    <path d="M161.361 143.839L160.136 142.432L158.91 143.839L160.136 145.246L161.361 143.839Z" stroke="#34A275"/>
    <path d="M176.77 143.839L175.545 142.432L174.319 143.839L175.545 145.246L176.77 143.839Z" stroke="#34A275"/>
    <path d="M192.18 143.839L190.954 142.432L189.728 143.839L190.954 145.246L192.18 143.839Z" stroke="#34A275"/>
    <path d="M207.589 143.839L206.363 142.432L205.137 143.839L206.363 145.246L207.589 143.839Z" stroke="#34A275"/>
    <path d="M222.998 143.839L221.772 142.432L220.546 143.839L221.772 145.246L222.998 143.839Z" stroke="#34A275"/>
    <path d="M-23.5484 161.525L-24.7742 160.118L-26 161.525L-24.7742 162.932L-23.5484 161.525Z" stroke="#34A275"/>
    <path d="M-8.13921 161.525L-9.365 160.118L-10.5908 161.525L-9.365 162.932L-8.13921 161.525Z" stroke="#34A275"/>
    <path d="M7.26984 161.525L6.04404 160.118L4.81825 161.525L6.04404 162.932L7.26984 161.525Z" stroke="#34A275"/>
    <path d="M22.6791 161.525L21.4533 160.118L20.2275 161.525L21.4533 162.932L22.6791 161.525Z" stroke="#34A275"/>
    <path d="M38.0883 161.525L36.8625 160.118L35.6367 161.525L36.8625 162.932L38.0883 161.525Z" stroke="#34A275"/>
    <path d="M53.4973 161.525L52.2715 160.118L51.0457 161.525L52.2715 162.932L53.4973 161.525Z" stroke="#34A275"/>
    <path d="M68.9065 161.525L67.6807 160.118L66.4549 161.525L67.6807 162.932L68.9065 161.525Z" stroke="#34A275"/>
    <path d="M84.3156 161.525L83.0898 160.118L81.864 161.525L83.0898 162.932L84.3156 161.525Z" stroke="#34A275"/>
    <path d="M99.7247 161.525L98.499 160.118L97.2732 161.525L98.499 162.932L99.7247 161.525Z" stroke="#34A275"/>
    <path d="M115.134 161.525L113.908 160.118L112.682 161.525L113.908 162.932L115.134 161.525Z" stroke="#34A275"/>
    <path d="M130.543 161.525L129.317 160.118L128.091 161.525L129.317 162.932L130.543 161.525Z" stroke="#34A275"/>
    <path d="M145.952 161.525L144.726 160.118L143.501 161.525L144.726 162.932L145.952 161.525Z" stroke="#34A275"/>
    <path d="M161.361 161.525L160.136 160.118L158.91 161.525L160.136 162.932L161.361 161.525Z" stroke="#34A275"/>
    <path d="M176.77 161.525L175.545 160.118L174.319 161.525L175.545 162.932L176.77 161.525Z" stroke="#34A275"/>
    <path d="M192.18 161.525L190.954 160.118L189.728 161.525L190.954 162.932L192.18 161.525Z" stroke="#34A275"/>
    <path d="M207.589 161.525L206.363 160.118L205.137 161.525L206.363 162.932L207.589 161.525Z" stroke="#34A275"/>
    <path d="M222.998 161.525L221.772 160.118L220.546 161.525L221.772 162.932L222.998 161.525Z" stroke="#34A275"/>
    <path d="M-23.5484 179.213L-24.7742 177.806L-26 179.213L-24.7742 180.619L-23.5484 179.213Z" stroke="#34A275"/>
    <path d="M-8.13921 179.213L-9.365 177.806L-10.5908 179.213L-9.365 180.619L-8.13921 179.213Z" stroke="#34A275"/>
    <path d="M7.26984 179.213L6.04404 177.806L4.81825 179.213L6.04404 180.619L7.26984 179.213Z" stroke="#34A275"/>
    <path d="M22.6791 179.213L21.4533 177.806L20.2275 179.213L21.4533 180.619L22.6791 179.213Z" stroke="#34A275"/>
    <path d="M38.0883 179.213L36.8625 177.806L35.6367 179.213L36.8625 180.619L38.0883 179.213Z" stroke="#34A275"/>
    <path d="M53.4973 179.213L52.2715 177.806L51.0457 179.213L52.2715 180.619L53.4973 179.213Z" stroke="#34A275"/>
    <path d="M68.9065 179.213L67.6807 177.806L66.4549 179.213L67.6807 180.619L68.9065 179.213Z" stroke="#34A275"/>
    <path d="M84.3156 179.213L83.0898 177.806L81.864 179.213L83.0898 180.619L84.3156 179.213Z" stroke="#34A275"/>
    <path d="M99.7247 179.213L98.499 177.806L97.2732 179.213L98.499 180.619L99.7247 179.213Z" stroke="#34A275"/>
    <path d="M115.134 179.213L113.908 177.806L112.682 179.213L113.908 180.619L115.134 179.213Z" stroke="#34A275"/>
    <path d="M130.543 179.213L129.317 177.806L128.091 179.213L129.317 180.619L130.543 179.213Z" stroke="#34A275"/>
    <path d="M145.952 179.213L144.726 177.806L143.501 179.213L144.726 180.619L145.952 179.213Z" stroke="#34A275"/>
    <path d="M161.361 179.213L160.136 177.806L158.91 179.213L160.136 180.619L161.361 179.213Z" stroke="#34A275"/>
    <path d="M176.77 179.213L175.545 177.806L174.319 179.213L175.545 180.619L176.77 179.213Z" stroke="#34A275"/>
    <path d="M192.18 179.213L190.954 177.806L189.728 179.213L190.954 180.619L192.18 179.213Z" stroke="#34A275"/>
    <path d="M207.589 179.213L206.363 177.806L205.137 179.213L206.363 180.619L207.589 179.213Z" stroke="#34A275"/>
    <path d="M222.998 179.213L221.772 177.806L220.546 179.213L221.772 180.619L222.998 179.213Z" stroke="#34A275"/>
    <path d="M-23.5484 196.899L-24.7742 195.492L-26 196.899L-24.7742 198.306L-23.5484 196.899Z" stroke="#34A275"/>
    <path d="M-8.13921 196.899L-9.365 195.492L-10.5908 196.899L-9.365 198.306L-8.13921 196.899Z" stroke="#34A275"/>
    <path d="M7.26984 196.899L6.04404 195.492L4.81825 196.899L6.04404 198.306L7.26984 196.899Z" stroke="#34A275"/>
    <path d="M22.6791 196.899L21.4533 195.492L20.2275 196.899L21.4533 198.306L22.6791 196.899Z" stroke="#34A275"/>
    <path d="M38.0883 196.899L36.8625 195.492L35.6367 196.899L36.8625 198.306L38.0883 196.899Z" stroke="#34A275"/>
    <path d="M53.4973 196.899L52.2715 195.492L51.0457 196.899L52.2715 198.306L53.4973 196.899Z" stroke="#34A275"/>
    <path d="M68.9065 196.899L67.6807 195.492L66.4549 196.899L67.6807 198.306L68.9065 196.899Z" stroke="#34A275"/>
    <path d="M84.3156 196.899L83.0898 195.492L81.864 196.899L83.0898 198.306L84.3156 196.899Z" stroke="#34A275"/>
    <path d="M99.7247 196.899L98.499 195.492L97.2732 196.899L98.499 198.306L99.7247 196.899Z" stroke="#34A275"/>
    <path d="M115.134 196.899L113.908 195.492L112.682 196.899L113.908 198.306L115.134 196.899Z" stroke="#34A275"/>
    <path d="M130.543 196.899L129.317 195.492L128.091 196.899L129.317 198.306L130.543 196.899Z" stroke="#34A275"/>
    <path d="M145.952 196.899L144.726 195.492L143.501 196.899L144.726 198.306L145.952 196.899Z" stroke="#34A275"/>
    <path d="M161.361 196.899L160.136 195.492L158.91 196.899L160.136 198.306L161.361 196.899Z" stroke="#34A275"/>
    <path d="M176.77 196.899L175.545 195.492L174.319 196.899L175.545 198.306L176.77 196.899Z" stroke="#34A275"/>
    <path d="M192.18 196.899L190.954 195.492L189.728 196.899L190.954 198.306L192.18 196.899Z" stroke="#34A275"/>
    <path d="M207.589 196.899L206.363 195.492L205.137 196.899L206.363 198.306L207.589 196.899Z" stroke="#34A275"/>
    <path d="M222.998 196.899L221.772 195.492L220.546 196.899L221.772 198.306L222.998 196.899Z" stroke="#34A275"/>
    <path d="M-23.5484 214.586L-24.7742 213.179L-26 214.586L-24.7742 215.993L-23.5484 214.586Z" stroke="#34A275"/>
    <path d="M-8.13921 214.586L-9.365 213.179L-10.5908 214.586L-9.365 215.993L-8.13921 214.586Z" stroke="#34A275"/>
    <path d="M7.26984 214.586L6.04404 213.179L4.81825 214.586L6.04404 215.993L7.26984 214.586Z" stroke="#34A275"/>
    <path d="M22.6791 214.586L21.4533 213.179L20.2275 214.586L21.4533 215.993L22.6791 214.586Z" stroke="#34A275"/>
    <path d="M38.0883 214.586L36.8625 213.179L35.6367 214.586L36.8625 215.993L38.0883 214.586Z" stroke="#34A275"/>
    <path d="M53.4973 214.586L52.2715 213.179L51.0457 214.586L52.2715 215.993L53.4973 214.586Z" stroke="#34A275"/>
    <path d="M68.9065 214.586L67.6807 213.179L66.4549 214.586L67.6807 215.993L68.9065 214.586Z" stroke="#34A275"/>
    <path d="M84.3156 214.586L83.0898 213.179L81.864 214.586L83.0898 215.993L84.3156 214.586Z" stroke="#34A275"/>
    <path d="M99.7247 214.586L98.499 213.179L97.2732 214.586L98.499 215.993L99.7247 214.586Z" stroke="#34A275"/>
    <path d="M115.134 214.586L113.908 213.179L112.682 214.586L113.908 215.993L115.134 214.586Z" stroke="#34A275"/>
    <path d="M130.543 214.586L129.317 213.179L128.091 214.586L129.317 215.993L130.543 214.586Z" stroke="#34A275"/>
    <path d="M145.952 214.586L144.726 213.179L143.501 214.586L144.726 215.993L145.952 214.586Z" stroke="#34A275"/>
    <path d="M161.361 214.586L160.136 213.179L158.91 214.586L160.136 215.993L161.361 214.586Z" stroke="#34A275"/>
    <path d="M176.77 214.586L175.545 213.179L174.319 214.586L175.545 215.993L176.77 214.586Z" stroke="#34A275"/>
    <path d="M192.18 214.586L190.954 213.179L189.728 214.586L190.954 215.993L192.18 214.586Z" stroke="#34A275"/>
    <path d="M207.589 214.586L206.363 213.179L205.137 214.586L206.363 215.993L207.589 214.586Z" stroke="#34A275"/>
    <path d="M222.998 214.586L221.772 213.179L220.546 214.586L221.772 215.993L222.998 214.586Z" stroke="#34A275"/>
    <path d="M-23.5484 232.273L-24.7742 230.866L-26 232.273L-24.7742 233.68L-23.5484 232.273Z" stroke="#34A275"/>
    <path d="M-8.13921 232.273L-9.365 230.866L-10.5908 232.273L-9.365 233.68L-8.13921 232.273Z" stroke="#34A275"/>
    <path d="M7.26984 232.273L6.04404 230.866L4.81825 232.273L6.04404 233.68L7.26984 232.273Z" stroke="#34A275"/>
    <path d="M22.6791 232.273L21.4533 230.866L20.2275 232.273L21.4533 233.68L22.6791 232.273Z" stroke="#34A275"/>
    <path d="M38.0883 232.273L36.8625 230.866L35.6367 232.273L36.8625 233.68L38.0883 232.273Z" stroke="#34A275"/>
    <path d="M53.4973 232.273L52.2715 230.866L51.0457 232.273L52.2715 233.68L53.4973 232.273Z" stroke="#34A275"/>
    <path d="M68.9065 232.273L67.6807 230.866L66.4549 232.273L67.6807 233.68L68.9065 232.273Z" stroke="#34A275"/>
    <path d="M84.3156 232.273L83.0898 230.866L81.864 232.273L83.0898 233.68L84.3156 232.273Z" stroke="#34A275"/>
    <path d="M99.7247 232.273L98.499 230.866L97.2732 232.273L98.499 233.68L99.7247 232.273Z" stroke="#34A275"/>
    <path d="M115.134 232.273L113.908 230.866L112.682 232.273L113.908 233.68L115.134 232.273Z" stroke="#34A275"/>
    <path d="M130.543 232.273L129.317 230.866L128.091 232.273L129.317 233.68L130.543 232.273Z" stroke="#34A275"/>
    <path d="M145.952 232.273L144.726 230.866L143.501 232.273L144.726 233.68L145.952 232.273Z" stroke="#34A275"/>
    <path d="M161.361 232.273L160.136 230.866L158.91 232.273L160.136 233.68L161.361 232.273Z" stroke="#34A275"/>
    <path d="M176.77 232.273L175.545 230.866L174.319 232.273L175.545 233.68L176.77 232.273Z" stroke="#34A275"/>
    <path d="M192.18 232.273L190.954 230.866L189.728 232.273L190.954 233.68L192.18 232.273Z" stroke="#34A275"/>
    <path d="M207.589 232.273L206.363 230.866L205.137 232.273L206.363 233.68L207.589 232.273Z" stroke="#34A275"/>
    <path d="M222.998 232.273L221.772 230.866L220.546 232.273L221.772 233.68L222.998 232.273Z" stroke="#34A275"/>
    <path d="M130.545 2.34363L129.319 0.936646L128.094 2.34363L129.319 3.75061L130.545 2.34363Z" stroke="#34A275"/>
    <path d="M145.954 2.34363L144.729 0.936646L143.503 2.34363L144.729 3.75061L145.954 2.34363Z" stroke="#34A275"/>
    <path d="M161.363 2.34363L160.138 0.936646L158.912 2.34363L160.138 3.75061L161.363 2.34363Z" stroke="#34A275"/>
    <path d="M176.773 2.34363L175.547 0.936646L174.321 2.34363L175.547 3.75061L176.773 2.34363Z" stroke="#34A275"/>
    <path d="M192.182 2.34363L190.956 0.936646L189.73 2.34363L190.956 3.75061L192.182 2.34363Z" stroke="#34A275"/>
    <path d="M207.591 2.34363L206.365 0.936646L205.139 2.34363L206.365 3.75061L207.591 2.34363Z" stroke="#34A275"/>
    <path d="M223 2.34363L221.774 0.936646L220.548 2.34363L221.774 3.75061L223 2.34363Z" stroke="#34A275"/>
    <path d="M130.545 20.0306L129.319 18.6236L128.094 20.0306L129.319 21.4376L130.545 20.0306Z" stroke="#34A275"/>
    <path d="M145.954 20.0306L144.729 18.6236L143.503 20.0306L144.729 21.4376L145.954 20.0306Z" stroke="#34A275"/>
    <path d="M161.363 20.0306L160.138 18.6236L158.912 20.0306L160.138 21.4376L161.363 20.0306Z" stroke="#34A275"/>
    <path d="M176.773 20.0306L175.547 18.6236L174.321 20.0306L175.547 21.4376L176.773 20.0306Z" stroke="#34A275"/>
    <path d="M192.182 20.0306L190.956 18.6236L189.73 20.0306L190.956 21.4376L192.182 20.0306Z" stroke="#34A275"/>
    <path d="M207.591 20.0306L206.365 18.6236L205.139 20.0306L206.365 21.4376L207.591 20.0306Z" stroke="#34A275"/>
    <path d="M223 20.0306L221.774 18.6236L220.548 20.0306L221.774 21.4376L223 20.0306Z" stroke="#34A275"/>
    <path d="M130.545 37.7171L129.319 36.3101L128.094 37.7171L129.319 39.1241L130.545 37.7171Z" stroke="#34A275"/>
    <path d="M145.954 37.7171L144.729 36.3101L143.503 37.7171L144.729 39.1241L145.954 37.7171Z" stroke="#34A275"/>
    <path d="M161.363 37.7171L160.138 36.3101L158.912 37.7171L160.138 39.1241L161.363 37.7171Z" stroke="#34A275"/>
    <path d="M176.773 37.7171L175.547 36.3101L174.321 37.7171L175.547 39.1241L176.773 37.7171Z" stroke="#34A275"/>
    <path d="M192.182 37.7171L190.956 36.3101L189.73 37.7171L190.956 39.1241L192.182 37.7171Z" stroke="#34A275"/>
    <path d="M207.591 37.7171L206.365 36.3101L205.139 37.7171L206.365 39.1241L207.591 37.7171Z" stroke="#34A275"/>
    <path d="M223 37.7171L221.774 36.3101L220.548 37.7171L221.774 39.1241L223 37.7171Z" stroke="#34A275"/>
    <path d="M130.545 55.4043L129.319 53.9973L128.094 55.4043L129.319 56.8113L130.545 55.4043Z" stroke="#34A275"/>
    <path d="M145.954 55.4043L144.729 53.9973L143.503 55.4043L144.729 56.8113L145.954 55.4043Z" stroke="#34A275"/>
    <path d="M161.363 55.4043L160.138 53.9973L158.912 55.4043L160.138 56.8113L161.363 55.4043Z" stroke="#34A275"/>
    <path d="M176.773 55.4043L175.547 53.9973L174.321 55.4043L175.547 56.8113L176.773 55.4043Z" stroke="#34A275"/>
    <path d="M192.182 55.4043L190.956 53.9973L189.73 55.4043L190.956 56.8113L192.182 55.4043Z" stroke="#34A275"/>
    <path d="M207.591 55.4043L206.365 53.9973L205.139 55.4043L206.365 56.8113L207.591 55.4043Z" stroke="#34A275"/>
    <path d="M223 55.4043L221.774 53.9973L220.548 55.4043L221.774 56.8113L223 55.4043Z" stroke="#34A275"/>
    <path d="M130.545 73.0912L129.319 71.6843L128.094 73.0912L129.319 74.4982L130.545 73.0912Z" stroke="#34A275"/>
    <path d="M145.954 73.0912L144.729 71.6843L143.503 73.0912L144.729 74.4982L145.954 73.0912Z" stroke="#34A275"/>
    <path d="M161.363 73.0912L160.138 71.6843L158.912 73.0912L160.138 74.4982L161.363 73.0912Z" stroke="#34A275"/>
    <path d="M176.773 73.0912L175.547 71.6843L174.321 73.0912L175.547 74.4982L176.773 73.0912Z" stroke="#34A275"/>
    <path d="M192.182 73.0912L190.956 71.6843L189.73 73.0912L190.956 74.4982L192.182 73.0912Z" stroke="#34A275"/>
    <path d="M207.591 73.0912L206.365 71.6843L205.139 73.0912L206.365 74.4982L207.591 73.0912Z" stroke="#34A275"/>
    <path d="M223 73.0912L221.774 71.6843L220.548 73.0912L221.774 74.4982L223 73.0912Z" stroke="#34A275"/>
    <path d="M130.545 90.778L129.319 89.371L128.094 90.778L129.319 92.185L130.545 90.778Z" stroke="#34A275"/>
    <path d="M145.954 90.778L144.729 89.371L143.503 90.778L144.729 92.185L145.954 90.778Z" stroke="#34A275"/>
    <path d="M161.363 90.778L160.138 89.371L158.912 90.778L160.138 92.185L161.363 90.778Z" stroke="#34A275"/>
    <path d="M176.773 90.778L175.547 89.371L174.321 90.778L175.547 92.185L176.773 90.778Z" stroke="#34A275"/>
    <path d="M192.182 90.778L190.956 89.371L189.73 90.778L190.956 92.185L192.182 90.778Z" stroke="#34A275"/>
    <path d="M207.591 90.778L206.365 89.371L205.139 90.778L206.365 92.185L207.591 90.778Z" stroke="#34A275"/>
    <path d="M223 90.778L221.774 89.371L220.548 90.778L221.774 92.185L223 90.778Z" stroke="#34A275"/>
    <path d="M130.545 108.465L129.319 107.058L128.094 108.465L129.319 109.872L130.545 108.465Z" stroke="#34A275"/>
    <path d="M145.954 108.465L144.729 107.058L143.503 108.465L144.729 109.872L145.954 108.465Z" stroke="#34A275"/>
    <path d="M161.363 108.465L160.138 107.058L158.912 108.465L160.138 109.872L161.363 108.465Z" stroke="#34A275"/>
    <path d="M176.773 108.465L175.547 107.058L174.321 108.465L175.547 109.872L176.773 108.465Z" stroke="#34A275"/>
    <path d="M192.182 108.465L190.956 107.058L189.73 108.465L190.956 109.872L192.182 108.465Z" stroke="#34A275"/>
    <path d="M207.591 108.465L206.365 107.058L205.139 108.465L206.365 109.872L207.591 108.465Z" stroke="#34A275"/>
    <path d="M223 108.465L221.774 107.058L220.548 108.465L221.774 109.872L223 108.465Z" stroke="#34A275"/>
    <path d="M130.545 126.152L129.319 124.745L128.094 126.152L129.319 127.559L130.545 126.152Z" stroke="#34A275"/>
    <path d="M145.954 126.152L144.729 124.745L143.503 126.152L144.729 127.559L145.954 126.152Z" stroke="#34A275"/>
    <path d="M161.363 126.152L160.138 124.745L158.912 126.152L160.138 127.559L161.363 126.152Z" stroke="#34A275"/>
    <path d="M176.773 126.152L175.547 124.745L174.321 126.152L175.547 127.559L176.773 126.152Z" stroke="#34A275"/>
    <path d="M192.182 126.152L190.956 124.745L189.73 126.152L190.956 127.559L192.182 126.152Z" stroke="#34A275"/>
    <path d="M207.591 126.152L206.365 124.745L205.139 126.152L206.365 127.559L207.591 126.152Z" stroke="#34A275"/>
    <path d="M223 126.152L221.774 124.745L220.548 126.152L221.774 127.559L223 126.152Z" stroke="#34A275"/>
    <path d="M130.545 143.839L129.319 142.432L128.094 143.839L129.319 145.246L130.545 143.839Z" stroke="#34A275"/>
    <path d="M145.954 143.839L144.729 142.432L143.503 143.839L144.729 145.246L145.954 143.839Z" stroke="#34A275"/>
    <path d="M161.363 143.839L160.138 142.432L158.912 143.839L160.138 145.246L161.363 143.839Z" stroke="#34A275"/>
    <path d="M176.773 143.839L175.547 142.432L174.321 143.839L175.547 145.246L176.773 143.839Z" stroke="#34A275"/>
    <path d="M192.182 143.839L190.956 142.432L189.73 143.839L190.956 145.246L192.182 143.839Z" stroke="#34A275"/>
    <path d="M207.591 143.839L206.365 142.432L205.139 143.839L206.365 145.246L207.591 143.839Z" stroke="#34A275"/>
    <path d="M223 143.839L221.774 142.432L220.548 143.839L221.774 145.246L223 143.839Z" stroke="#34A275"/>
    <path d="M130.545 161.525L129.319 160.118L128.094 161.525L129.319 162.932L130.545 161.525Z" stroke="#34A275"/>
    <path d="M145.954 161.525L144.729 160.118L143.503 161.525L144.729 162.932L145.954 161.525Z" stroke="#34A275"/>
    <path d="M161.363 161.525L160.138 160.118L158.912 161.525L160.138 162.932L161.363 161.525Z" stroke="#34A275"/>
    <path d="M176.773 161.525L175.547 160.118L174.321 161.525L175.547 162.932L176.773 161.525Z" stroke="#34A275"/>
    <path d="M192.182 161.525L190.956 160.118L189.73 161.525L190.956 162.932L192.182 161.525Z" stroke="#34A275"/>
    <path d="M207.591 161.525L206.365 160.118L205.139 161.525L206.365 162.932L207.591 161.525Z" stroke="#34A275"/>
    <path d="M223 161.525L221.774 160.118L220.548 161.525L221.774 162.932L223 161.525Z" stroke="#34A275"/>
    <path d="M130.545 179.213L129.319 177.806L128.094 179.213L129.319 180.619L130.545 179.213Z" stroke="#34A275"/>
    <path d="M145.954 179.213L144.729 177.806L143.503 179.213L144.729 180.619L145.954 179.213Z" stroke="#34A275"/>
    <path d="M161.363 179.213L160.138 177.806L158.912 179.213L160.138 180.619L161.363 179.213Z" stroke="#34A275"/>
    <path d="M176.773 179.213L175.547 177.806L174.321 179.213L175.547 180.619L176.773 179.213Z" stroke="#34A275"/>
    <path d="M192.182 179.213L190.956 177.806L189.73 179.213L190.956 180.619L192.182 179.213Z" stroke="#34A275"/>
    <path d="M207.591 179.213L206.365 177.806L205.139 179.213L206.365 180.619L207.591 179.213Z" stroke="#34A275"/>
    <path d="M223 179.213L221.774 177.806L220.548 179.213L221.774 180.619L223 179.213Z" stroke="#34A275"/>
    <path d="M130.545 196.899L129.319 195.492L128.094 196.899L129.319 198.306L130.545 196.899Z" stroke="#34A275"/>
    <path d="M145.954 196.899L144.729 195.492L143.503 196.899L144.729 198.306L145.954 196.899Z" stroke="#34A275"/>
    <path d="M161.363 196.899L160.138 195.492L158.912 196.899L160.138 198.306L161.363 196.899Z" stroke="#34A275"/>
    <path d="M176.773 196.899L175.547 195.492L174.321 196.899L175.547 198.306L176.773 196.899Z" stroke="#34A275"/>
    <path d="M192.182 196.899L190.956 195.492L189.73 196.899L190.956 198.306L192.182 196.899Z" stroke="#34A275"/>
    <path d="M207.591 196.899L206.365 195.492L205.139 196.899L206.365 198.306L207.591 196.899Z" stroke="#34A275"/>
    <path d="M223 196.899L221.774 195.492L220.548 196.899L221.774 198.306L223 196.899Z" stroke="#34A275"/>
    <path d="M130.545 214.586L129.319 213.179L128.094 214.586L129.319 215.993L130.545 214.586Z" stroke="#34A275"/>
    <path d="M145.954 214.586L144.729 213.179L143.503 214.586L144.729 215.993L145.954 214.586Z" stroke="#34A275"/>
    <path d="M161.363 214.586L160.138 213.179L158.912 214.586L160.138 215.993L161.363 214.586Z" stroke="#34A275"/>
    <path d="M176.773 214.586L175.547 213.179L174.321 214.586L175.547 215.993L176.773 214.586Z" stroke="#34A275"/>
    <path d="M192.182 214.586L190.956 213.179L189.73 214.586L190.956 215.993L192.182 214.586Z" stroke="#34A275"/>
    <path d="M207.591 214.586L206.365 213.179L205.139 214.586L206.365 215.993L207.591 214.586Z" stroke="#34A275"/>
    <path d="M223 214.586L221.774 213.179L220.548 214.586L221.774 215.993L223 214.586Z" stroke="#34A275"/>
    <path d="M130.545 232.273L129.319 230.866L128.094 232.273L129.319 233.68L130.545 232.273Z" stroke="#34A275"/>
    <path d="M145.954 232.273L144.729 230.866L143.503 232.273L144.729 233.68L145.954 232.273Z" stroke="#34A275"/>
    <path d="M161.363 232.273L160.138 230.866L158.912 232.273L160.138 233.68L161.363 232.273Z" stroke="#34A275"/>
    <path d="M176.773 232.273L175.547 230.866L174.321 232.273L175.547 233.68L176.773 232.273Z" stroke="#34A275"/>
    <path d="M192.182 232.273L190.956 230.866L189.73 232.273L190.956 233.68L192.182 232.273Z" stroke="#34A275"/>
    <path d="M207.591 232.273L206.365 230.866L205.139 232.273L206.365 233.68L207.591 232.273Z" stroke="#34A275"/>
    <path d="M223 232.273L221.774 230.866L220.548 232.273L221.774 233.68L223 232.273Z" stroke="#34A275"/>
  </g>
</svg>